<svg version="1.1" xmlns="http://www.w3.org/2000/svg" width="500" height="500">

<path d="M0 0 C0.80824219 0.03351563 1.61648438 0.06703125 2.44921875 0.1015625 C8.70588632 0.86590234 11.94918069 4.22444449 15.87109375 8.96484375 C19.62200102 14.31246751 22.31590119 20.06302905 25 26 C25.58684932 27.26250678 26.1753898 28.52422885 26.765625 29.78515625 C28.19293291 32.84986645 29.60373454 35.92105565 31 39 C29.80310547 39.680625 29.80310547 39.680625 28.58203125 40.375 C25.84185795 42.09952662 25.03383153 42.99249009 24 46 C24 46.99 24 47.98 24 49 C24.5775 48.01 25.155 47.02 25.75 46 C26.4925 45.01 27.235 44.02 28 43 C29.32 43 30.64 43 32 43 C32.375 45.25 32.375 45.25 32 48 C30.04690112 49.40113616 28.04291182 50.73339467 26 52 C24.55276143 54.23664142 24 55.35433591 24 58 C24.99 58 25.98 58 27 58 C27.27972656 58.64066406 27.55945313 59.28132813 27.84765625 59.94140625 C30.02399939 64.63698904 32.01110915 68.31254276 35.875 71.8125 C37.67578125 73.46484375 37.67578125 73.46484375 39 75 C39.0625 77.875 39.0625 77.875 38 80 C37.01 80.495 37.01 80.495 36 81 C36 79.35 36 77.7 36 76 C30.20217642 76.95998822 26.49421352 78.01941089 22 82 C19.86328125 82.62109375 19.86328125 82.62109375 18 83 C18.75925781 83.06058594 19.51851563 83.12117188 20.30078125 83.18359375 C21.79158203 83.30927734 21.79158203 83.30927734 23.3125 83.4375 C24.79169922 83.55931641 24.79169922 83.55931641 26.30078125 83.68359375 C29 84 29 84 32 85 C32.94921875 86.84765625 32.94921875 86.84765625 33.6875 89.0625 C33.93886719 89.79597656 34.19023437 90.52945313 34.44921875 91.28515625 C34.63097656 91.85105469 34.81273437 92.41695313 35 93 C34.33613281 93.09796875 33.67226563 93.1959375 32.98828125 93.296875 C27.54420951 94.2187908 24.12174272 95.12071274 20 99 C18.68147095 99.69548785 17.34984631 100.36743604 16 101 C17.12019531 100.91621094 18.24039063 100.83242187 19.39453125 100.74609375 C20.86716556 100.64291555 22.33982308 100.54006821 23.8125 100.4375 C24.91948242 100.35338867 24.91948242 100.35338867 26.04882812 100.26757812 C29.36788516 100.04230276 31.81232564 99.93744188 35 101 C35 103.31 35 105.62 35 108 C24.26989367 107.73956053 17.14625904 107.09750603 8 101 C8 101.66 8 102.32 8 103 C-0.57142857 103.14285714 -0.57142857 103.14285714 -4 102 C1.76609728 108.08277081 8.49636897 112.65649112 17.0390625 113.12109375 C19.64136751 112.96039364 21.64463462 112.08219491 24 111 C27.125 110.5625 27.125 110.5625 30 111 C33.40207522 114.51547772 33.35091204 118.27240958 33.3984375 122.9140625 C33 125 33 125 31.94140625 126.77734375 C28.93293203 128.67201665 25.97161233 128.22314873 22.5625 127.9375 C21.84602295 127.88150635 21.1295459 127.8255127 20.39135742 127.76782227 C5.32975491 126.35458923 -7.83997799 119.18513214 -18.21484375 108.2265625 C-20.32187428 105.59853755 -21.64558584 102.98626877 -22.97265625 99.91015625 C-24.57282992 96.9349284 -26.9556058 94.89198607 -29.37890625 92.578125 C-31.5225887 90.49126305 -32.90577654 88.80394761 -34 86 C-33.83662259 83.30130818 -33.39242163 80.67882266 -33 78 C-35.55939439 76.36992743 -38.12227323 74.74584824 -40.6875 73.125 C-41.40873047 72.66480469 -42.12996094 72.20460938 -42.87304688 71.73046875 C-46.49198487 69.45004207 -49.92841547 67.39734854 -54 66 C-53.855625 66.59167969 -53.71125 67.18335938 -53.5625 67.79296875 C-52.59177306 71.92529941 -51.72406298 75.7229762 -52 80 C-54.97 80.495 -54.97 80.495 -58 81 C-58.625 78.6875 -58.625 78.6875 -59 76 C-58.34 75.01 -57.68 74.02 -57 73 C-56.92094936 70.66800612 -56.91201231 68.33167378 -57 66 C-58.32 65.34 -59.64 64.68 -61 64 C-61 65.32 -61 66.64 -61 68 C-63.5199731 67.5500048 -64.88180084 67.0984993 -66.875 65.4375 C-69.74066161 63.49896421 -71.61302799 63.55822104 -75 64 C-76.93395001 66.90092502 -77.30131941 67.89674737 -77.625 71.1875 C-77.74875 72.445625 -77.8725 73.70375 -78 75 C-80 73 -80 73 -80.375 69.125 C-80.26887395 66.34045463 -80.03538418 65.06571347 -78.6875 62.5625 C-74.41758009 60.07998843 -69.86215463 60.1676605 -65 60 C-65 59.01 -65 58.02 -65 57 C-60.99616707 57.71396803 -57.62673789 59.62983615 -54.08203125 61.52734375 C-53.42418137 61.87632217 -52.76633148 62.2253006 -52.08854675 62.58485413 C-50.70311441 63.32152493 -49.3188847 64.06046138 -47.93579102 64.80151367 C-45.81332261 65.9370599 -43.68530571 67.06166868 -41.55664062 68.18554688 C-40.21058887 68.90299213 -38.86487374 69.62106938 -37.51953125 70.33984375 C-36.88102737 70.67636459 -36.2425235 71.01288544 -35.58467102 71.35960388 C-31.11471955 73.7705609 -31.11471955 73.7705609 -30 76 C-30.495 77.485 -30.495 77.485 -31 79 C-30.26136719 79.24621094 -29.52273437 79.49242187 -28.76171875 79.74609375 C-25.7191983 81.12749271 -24.08714233 82.63826804 -21.8125 85.0625 C-19.19582919 87.92137806 -19.19582919 87.92137806 -16 90 C-16.99 87.36 -17.98 84.72 -19 82 C-18.01 82 -17.02 82 -16 82 C-25.18651918 74.45726154 -34.41157263 67.02788143 -44 60 C-41.77955545 57.63199426 -39.45795612 55.84728926 -36.75 54.0625 C-35.9559375 53.53785156 -35.161875 53.01320312 -34.34375 52.47265625 C-32.34524654 51.21692991 -30.33845729 50.0946081 -28.25 49 C-24.63339789 46.7743987 -21.79805309 44.88410603 -20 41 C-19.01403625 36.7646966 -18.98713891 33.23417702 -20 29 C-22.56591927 24.89559387 -25.70265987 21.52435149 -29 18 C-30.44165208 16.04374246 -31.71686081 14.06418043 -33 12 C-30.82477057 6.50843718 -26.08758931 4.49607556 -21 2 C-14.23686355 -0.50224246 -7.11870271 -0.40024834 0 0 Z " fill="#25B3FA" transform="translate(283,147)" data-index="1" style="visibility: visible;"></path>
<path d="M0 0 C1.96565565 1.06998992 3.92232441 2.15650167 5.875 3.25 C6.96554687 3.85328125 8.05609375 4.4565625 9.1796875 5.078125 C11.91863764 6.9445564 13.07747028 7.85560291 14 11 C13.67 11.66 13.34 12.32 13 13 C12.77049681 15.204364 12.58924067 17.41392173 12.4375 19.625 C12.31181641 21.40777344 12.31181641 21.40777344 12.18359375 23.2265625 C12.12300781 24.14179688 12.06242187 25.05703125 12 26 C10.96939453 26.14695313 10.96939453 26.14695313 9.91796875 26.296875 C8.56638672 26.52117187 8.56638672 26.52117187 7.1875 26.75 C6.29417969 26.88921875 5.40085937 27.0284375 4.48046875 27.171875 C1.46003512 28.18027174 0.80076349 29.46163565 -1 32 C-5.00527382 32.52899843 -7.32442297 32.3449755 -10.9375 30.5 C-14.93348703 28.54278186 -17.59308635 28.77205619 -22 29 C-22.33 30.65 -22.66 32.3 -23 34 C-22.5153125 34.30292969 -22.030625 34.60585937 -21.53125 34.91796875 C-20.10988195 35.80632378 -18.6936057 36.70285411 -17.28125 37.60546875 C-15.0794894 39.00140178 -15.0794894 39.00140178 -12.96875 39.98828125 C-8.03703715 42.52263369 -5.69818617 45.74671184 -3 50.5 C0.28797981 56.20088084 2.98166261 59.37969008 9 62 C9.67933594 62.31324219 10.35867188 62.62648437 11.05859375 62.94921875 C12.68810902 63.67381206 14.34182461 64.34363891 16 65 C14.02 66.485 14.02 66.485 12 68 C13.12019531 67.91621094 14.24039063 67.83242187 15.39453125 67.74609375 C16.86716556 67.64291555 18.33982308 67.54006821 19.8125 67.4375 C20.91948242 67.35338867 20.91948242 67.35338867 22.04882812 67.26757812 C25.36788516 67.04230276 27.81232564 66.93744188 31 68 C31 70.31 31 72.62 31 75 C20.26989367 74.73956053 13.14625904 74.09750603 4 68 C4 68.66 4 69.32 4 70 C-4.57142857 70.14285714 -4.57142857 70.14285714 -8 69 C-2.23390272 75.08277081 4.49636897 79.65649112 13.0390625 80.12109375 C15.64136751 79.96039364 17.64463462 79.08219491 20 78 C23.125 77.5625 23.125 77.5625 26 78 C29.40207522 81.51547772 29.35091204 85.27240958 29.3984375 89.9140625 C29 92 29 92 27.94140625 93.77734375 C24.93293203 95.67201665 21.97161233 95.22314873 18.5625 94.9375 C17.84602295 94.88150635 17.1295459 94.8255127 16.39135742 94.76782227 C1.32975491 93.35458923 -11.83997799 86.18513214 -22.21484375 75.2265625 C-24.32187428 72.59853755 -25.64558584 69.98626877 -26.97265625 66.91015625 C-28.57282992 63.9349284 -30.9556058 61.89198607 -33.37890625 59.578125 C-35.5225887 57.49126305 -36.90577654 55.80394761 -38 53 C-37.83662259 50.30130818 -37.39242163 47.67882266 -37 45 C-39.55939439 43.36992743 -42.12227323 41.74584824 -44.6875 40.125 C-45.40873047 39.66480469 -46.12996094 39.20460937 -46.87304688 38.73046875 C-50.49198487 36.45004207 -53.92841547 34.39734854 -58 33 C-57.855625 33.59167969 -57.71125 34.18335938 -57.5625 34.79296875 C-56.59177306 38.92529941 -55.72406298 42.7229762 -56 47 C-58.97 47.495 -58.97 47.495 -62 48 C-62.625 45.6875 -62.625 45.6875 -63 43 C-62.34 42.01 -61.68 41.02 -61 40 C-60.92094936 37.66800612 -60.91201231 35.33167378 -61 33 C-62.32 32.34 -63.64 31.68 -65 31 C-65 32.32 -65 33.64 -65 35 C-67.5199731 34.5500048 -68.88180084 34.0984993 -70.875 32.4375 C-73.74066161 30.49896421 -75.61302799 30.55822104 -79 31 C-80.93395001 33.90092502 -81.30131941 34.89674737 -81.625 38.1875 C-81.74875 39.445625 -81.8725 40.70375 -82 42 C-84 40 -84 40 -84.375 36.125 C-84.26887395 33.34045463 -84.03538418 32.06571347 -82.6875 29.5625 C-78.41758009 27.07998843 -73.86215463 27.1676605 -69 27 C-69 26.01 -69 25.02 -69 24 C-64.99616707 24.71396803 -61.62673789 26.62983615 -58.08203125 28.52734375 C-57.42418137 28.87632217 -56.76633148 29.2253006 -56.08854675 29.58485413 C-54.70311441 30.32152493 -53.3188847 31.06046138 -51.93579102 31.80151367 C-49.81332261 32.9370599 -47.68530571 34.06166868 -45.55664062 35.18554688 C-44.21058887 35.90299213 -42.86487374 36.62106938 -41.51953125 37.33984375 C-40.88102737 37.67636459 -40.2425235 38.01288544 -39.58467102 38.35960388 C-35.11471955 40.7705609 -35.11471955 40.7705609 -34 43 C-34.33 43.99 -34.66 44.98 -35 46 C-34.26136719 46.24621094 -33.52273437 46.49242187 -32.76171875 46.74609375 C-29.7191983 48.12749271 -28.08714233 49.63826804 -25.8125 52.0625 C-23.19582919 54.92137806 -23.19582919 54.92137806 -20 57 C-20.99 54.36 -21.98 51.72 -23 49 C-22.01 49 -21.02 49 -20 49 C-22.53802422 46.91219764 -25.08106344 44.8305926 -27.625 42.75 C-28.33785156 42.16347656 -29.05070312 41.57695312 -29.78515625 40.97265625 C-32.95236703 38.38658506 -36.09323741 35.87096086 -39.5234375 33.640625 C-40.34070313 33.09921875 -41.15796875 32.5578125 -42 32 C-42 31.67 -42 31.34 -42 31 C-41.09121094 30.77957031 -41.09121094 30.77957031 -40.1640625 30.5546875 C-28.93978375 27.55003442 -21.14040212 21.58823697 -12.84375 13.6875 C-9.83361811 10.84275997 -6.71723859 8.16970525 -3.5234375 5.53515625 C-1.83162644 3.83033126 -0.95558651 2.19027996 0 0 Z " fill="#196A99" transform="translate(287,180)" data-index="2" style="visibility: visible;"></path>
<path d="M0 0 C1.25 1.75 1.25 1.75 2.25 4.75 C1.46625 5.1625 0.6825 5.575 -0.125 6 C-2.84288859 7.81192573 -3.70823195 8.71940204 -4.75 11.75 C-4.75 12.74 -4.75 13.73 -4.75 14.75 C-4.1725 13.76 -3.595 12.77 -3 11.75 C-2.2575 10.76 -1.515 9.77 -0.75 8.75 C0.57 8.75 1.89 8.75 3.25 8.75 C3.625 11 3.625 11 3.25 13.75 C1.29690112 15.15113616 -0.70708818 16.48339467 -2.75 17.75 C-4.19723857 19.98664142 -4.75 21.10433591 -4.75 23.75 C-3.76 23.75 -2.77 23.75 -1.75 23.75 C-1.47027344 24.39066406 -1.19054687 25.03132813 -0.90234375 25.69140625 C1.27399939 30.38698904 3.26110915 34.06254276 7.125 37.5625 C8.92578125 39.21484375 8.92578125 39.21484375 10.25 40.75 C10.3125 43.625 10.3125 43.625 9.25 45.75 C8.26 46.245 8.26 46.245 7.25 46.75 C7.25 45.1 7.25 43.45 7.25 41.75 C1.45217642 42.70998822 -2.25578648 43.76941089 -6.75 47.75 C-8.88671875 48.37109375 -8.88671875 48.37109375 -10.75 48.75 C-9.61111328 48.84087891 -9.61111328 48.84087891 -8.44921875 48.93359375 C-7.45535156 49.01738281 -6.46148437 49.10117188 -5.4375 49.1875 C-4.45136719 49.26871094 -3.46523438 49.34992188 -2.44921875 49.43359375 C0.25 49.75 0.25 49.75 3.25 50.75 C4.19921875 52.59765625 4.19921875 52.59765625 4.9375 54.8125 C5.18886719 55.54597656 5.44023437 56.27945313 5.69921875 57.03515625 C5.88097656 57.60105469 6.06273437 58.16695312 6.25 58.75 C5.57453125 58.85957031 4.8990625 58.96914062 4.203125 59.08203125 C3.31109375 59.24058594 2.4190625 59.39914063 1.5 59.5625 C0.61828125 59.71332031 -0.2634375 59.86414063 -1.171875 60.01953125 C-3.95054229 60.80682032 -5.50196205 61.98645298 -7.75 63.75 C-14.3011962 63.56802233 -21.07187701 59.02840995 -25.75 54.75 C-26.98189021 52.68334208 -28.14498989 50.57469001 -29.25 48.4375 C-32.95813062 41.78686633 -37.04168514 39.20450623 -43.9921875 36.01953125 C-46.75 34.75 -46.75 34.75 -48.75 32.75 C-48.19444444 28.19444444 -48.19444444 28.19444444 -46.75 26.75 C-40.86987205 26.35134726 -38.0311736 27.0532305 -32.75 29.75 C-29.12306618 30.33414702 -29.12306618 30.33414702 -25.75 29.75 C-23.9561084 27.88633766 -23.9561084 27.88633766 -22.75 25.75 C-19.27674819 24.5922494 -16.38932552 24.68133348 -12.75 24.75 C-12.75 23.61820313 -12.75 22.48640625 -12.75 21.3203125 C-12.75 16.46354167 -12.75 11.60677083 -12.75 6.75 C-14.20833358 5.12485532 -14.20833358 5.12485532 -15.75 3.75 C-14.3578125 3.316875 -14.3578125 3.316875 -12.9375 2.875 C-9.65208333 1.8625 -9.65208333 1.8625 -6.75 -0.25 C-2.35137457 -1.67955326 -2.35137457 -1.67955326 0 0 Z " fill="#196A9A" transform="translate(311.75,181.25)" data-index="3" style="visibility: visible;"></path>
<path d="M0 0 C0.05791844 3.12492251 0.09356746 6.24970766 0.125 9.375 C0.14175781 10.26445312 0.15851563 11.15390625 0.17578125 12.0703125 C0.18544922 13.34648437 0.18544922 13.34648437 0.1953125 14.6484375 C0.21102295 15.82672119 0.21102295 15.82672119 0.22705078 17.02880859 C0 19 0 19 -2 21 C-2.49416119 22.99992488 -2.49416119 22.99992488 -2.8125 25.25 C-3.79106407 30.09584925 -5.47493685 32.56306343 -9 36 C-9.66 36 -10.32 36 -11 36 C-10.73323796 37.98491642 -10.73323796 37.98491642 -10 40 C-9.01 40.33 -8.02 40.66 -7 41 C-9.51407619 45.28324091 -11.12314139 47.64531705 -16 49 C-14.02 46.525 -14.02 46.525 -12 44 C-13.98 44.495 -13.98 44.495 -16 45 C-16 44.34 -16 43.68 -16 43 C-13.525 42.505 -13.525 42.505 -11 42 C-11.33 41.01 -11.66 40.02 -12 39 C-12.73605469 39.02320313 -13.47210938 39.04640625 -14.23046875 39.0703125 C-15.20628906 39.08835938 -16.18210938 39.10640625 -17.1875 39.125 C-18.15042969 39.14820313 -19.11335938 39.17140625 -20.10546875 39.1953125 C-23.12812778 38.9913544 -25.26769985 38.26874632 -28 37 C-29.41433748 40.30012079 -30.61233695 43.41411676 -31 47 C-30.34 47.66 -29.68 48.32 -29 49 C-30.35544922 49.05607422 -30.35544922 49.05607422 -31.73828125 49.11328125 C-33.50751953 49.21189453 -33.50751953 49.21189453 -35.3125 49.3125 C-36.48425781 49.37050781 -37.65601563 49.42851562 -38.86328125 49.48828125 C-41.93818605 49.76615075 -41.93818605 49.76615075 -43.90625 51.28125 C-45.2661819 53.41828585 -45.31105802 54.67515351 -45.1875 57.1875 C-45.0946875 59.0746875 -45.0946875 59.0746875 -45 61 C-44.7525 59.72125 -44.505 58.4425 -44.25 57.125 C-43.828125 54.9453125 -43.828125 54.9453125 -43 53 C-40.921875 51.7421875 -40.921875 51.7421875 -39 51 C-39.14109986 53.10448938 -39.28804175 55.2085877 -39.4375 57.3125 C-39.51871094 58.48425781 -39.59992188 59.65601563 -39.68359375 60.86328125 C-40 64 -40 64 -41 67 C-43.8125 66.8125 -43.8125 66.8125 -47 66 C-49.52323198 62.86771202 -50.43583694 59.94914145 -51 56 C-51.33 56 -51.66 56 -52 56 C-51.31852219 45.55067357 -45.10974927 35.3867859 -37.31640625 28.515625 C-35.59224638 26.53053886 -35.63878396 25.28564199 -35.5625 22.6875 C-35.17009544 18.12672244 -34.09875624 15.50648732 -31 12 C-26.88954495 8.79743672 -23.25139479 7.4876688 -18 8 C-18 7.34 -18 6.68 -18 6 C-21.63 6.66 -25.26 7.32 -29 8 C-29 7.34 -29 6.68 -29 6 C-24.99056936 4.12893237 -21.0133446 3.37775371 -16.69921875 2.578125 C-13.11560049 1.81057724 -9.68985238 0.67843461 -6.2265625 -0.51171875 C-3.74280502 -1.05640241 -2.40709353 -0.6862522 0 0 Z " fill="#0F1328" transform="translate(249,159)" data-index="4" style="visibility: visible;"></path>
<path d="M0 0 C1.20269531 -0.00257813 2.40539062 -0.00515625 3.64453125 -0.0078125 C4.90652344 -0.00007813 6.16851562 0.00765625 7.46875 0.015625 C8.73074219 0.00789063 9.99273437 0.00015625 11.29296875 -0.0078125 C12.49566406 -0.00523437 13.69835937 -0.00265625 14.9375 0 C16.04544922 0.00225586 17.15339844 0.00451172 18.29492188 0.00683594 C20.96875 0.265625 20.96875 0.265625 22.96875 2.265625 C23.3678139 6.68406049 23.29778357 11.11682339 23.28442383 15.55126953 C23.28126188 17.75733734 23.30472576 19.96206669 23.33007812 22.16796875 C23.33235088 23.56510247 23.33305472 24.96223981 23.33203125 26.359375 C23.33501221 27.63490234 23.33799316 28.91042969 23.34106445 30.22460938 C23.21820068 31.22814453 23.09533691 32.23167969 22.96875 33.265625 C18.19675148 36.44695734 13.07827168 35.59379405 7.46875 35.578125 C6.31503906 35.59423828 5.16132813 35.61035156 3.97265625 35.62695312 C2.86792969 35.62759766 1.76320313 35.62824219 0.625 35.62890625 C-0.38755859 35.63188721 -1.40011719 35.63486816 -2.44335938 35.63793945 C-5.03125 35.265625 -5.03125 35.265625 -6.86206055 34.16699219 C-8.63478212 31.28414491 -8.40268249 28.83944055 -8.39453125 25.48046875 C-8.39502975 24.82357559 -8.39552826 24.16668243 -8.39604187 23.48988342 C-8.39370488 22.10382048 -8.38399825 20.71775301 -8.36743164 19.33178711 C-8.34379461 17.20713516 -8.34687808 15.08373478 -8.35351562 12.95898438 C-8.29994572 0.01689925 -8.29994572 0.01689925 0 0 Z " fill="#25B5FD" transform="translate(257.03125,354.734375)" data-index="5" style="visibility: visible; opacity: 1;"></path>
<path d="M0 0 C7.115625 -0.061875 7.115625 -0.061875 14.375 -0.125 C15.8707959 -0.14320801 17.3665918 -0.16141602 18.90771484 -0.18017578 C20.66656006 -0.18766846 20.66656006 -0.18766846 22.4609375 -0.1953125 C24.26763916 -0.21102295 24.26763916 -0.21102295 26.11083984 -0.22705078 C29 0 29 0 31 2 C31.47188458 5.1243518 31.37035541 8.28149939 31.375 11.4375 C31.39949219 12.30955078 31.42398438 13.18160156 31.44921875 14.08007812 C31.45501953 15.33788086 31.45501953 15.33788086 31.4609375 16.62109375 C31.46915527 17.3886499 31.47737305 18.15620605 31.48583984 18.94702148 C31 21 31 21 27 24 C29.31 27.63 31.62 31.26 34 35 C26.89500665 35.87715967 26.89500665 35.87715967 23 35 C19.89898982 32.07891192 17.83969545 28.83008267 16 25 C16 24.34 16 23.68 16 23 C13.36 23 10.72 23 8 23 C8 26.96 8 30.92 8 35 C5.36 35 2.72 35 0 35 C0 23.45 0 11.9 0 0 Z " fill="#25B5FD" transform="translate(114,355)" data-index="6" style="visibility: visible; opacity: 1;"></path>
<path d="M0 0 C2.97 0 5.94 0 9 0 C9 11.88 9 23.76 9 36 C6.03 36 3.06 36 0 36 C-0.33 30.06 -0.66 24.12 -1 18 C-3.31 22.29 -5.62 26.58 -8 31 C-9.65 30.67 -11.3 30.34 -13 30 C-15.53306366 25.86247954 -17.12418083 21.49324127 -19 17 C-19.33 23.27 -19.66 29.54 -20 36 C-22.64 36 -25.28 36 -28 36 C-28 24.45 -28 12.9 -28 1 C-25.03 1 -22.06 1 -19 1 C-17.66199 3.78951193 -16.32942906 6.58140245 -15 9.375 C-14.6184375 10.1690625 -14.236875 10.963125 -13.84375 11.78125 C-13.4828125 12.54179687 -13.121875 13.30234375 -12.75 14.0859375 C-12.41484375 14.7876709 -12.0796875 15.4894043 -11.734375 16.21240234 C-11 18 -11 18 -11 20 C-10.34 20 -9.68 20 -9 20 C-8.74476563 19.16210938 -8.48953125 18.32421875 -8.2265625 17.4609375 C-6.88231082 13.66792162 -5.20985807 10.19775209 -3.375 6.625 C-3.05015625 5.98433594 -2.7253125 5.34367187 -2.390625 4.68359375 C-1.59742593 3.12052499 -0.79922969 1.55999378 0 0 Z " fill="#25B1F7" transform="translate(233,354)" data-index="7" style="visibility: visible; opacity: 1;"></path>
<path d="M0 0 C4.27786748 0.49360009 7.09567131 1.04783565 11 3 C10.67 8.28 10.34 13.56 10 19 C10.66 19 11.32 19 12 19 C12.33 17.35 12.66 15.7 13 14 C14.81779192 18.18741353 12.99449955 21.80378821 11.5 25.8125 C11.22446289 26.55790039 10.94892578 27.30330078 10.66503906 28.07128906 C9.79356953 30.38769234 8.89793995 32.69374832 8 35 C7.73123047 35.71913574 7.46246094 36.43827148 7.18554688 37.17919922 C2.78785912 48.78660972 2.78785912 48.78660972 -1.4921875 51.69140625 C-3.20604494 52.42119421 -4.93813372 53.10998795 -6.6875 53.75 C-10.98561222 56.0733039 -12.37360062 60.59160167 -14 65 C-14.66 65 -15.32 65 -16 65 C-14.125 59.25 -14.125 59.25 -13 57 C-14.98 56.34 -16.96 55.68 -19 55 C-19.5365001 51.39778506 -19.73141185 49.16381886 -17.7578125 46.0234375 C-16.56490487 44.55566637 -15.35926293 43.09819874 -14.14453125 41.6484375 C-3.4022801 28.38205083 0.61476939 17.0769274 0 0 Z " fill="#1C2A46" transform="translate(218,257)" data-index="8" style="visibility: visible;"></path>
<path d="M0 0 C2.64 0 5.28 0 8 0 C8 4.62 8 9.24 8 14 C13.19493929 14.40248078 13.19493929 14.40248078 18 13 C20.74773272 8.93206757 22.41575714 4.63036837 24 0 C27.3 0 30.6 0 34 0 C30.3 9.44137931 30.3 9.44137931 28.1875 13.375 C26.79045375 16.4632075 26.94252691 16.89232399 28 20 C29.51421543 23.39754708 31.11981839 26.74503144 32.72265625 30.1015625 C34 33 34 33 34 35 C31.03 35 28.06 35 25 35 C24.39865234 33.60974609 24.39865234 33.60974609 23.78515625 32.19140625 C20.94121107 25.39162737 20.94121107 25.39162737 15.53125 20.9140625 C12.79822847 20.5937498 12.79822847 20.5937498 9 21 C9 25.62 9 30.24 9 35 C6.03 35 3.06 35 0 35 C0 23.45 0 11.9 0 0 Z " fill="#25B3F9" transform="translate(326,355)" data-index="9" style="visibility: visible;"></path>
<path d="M0 0 C1.20269531 -0.00257813 2.40539062 -0.00515625 3.64453125 -0.0078125 C4.90652344 -0.00007813 6.16851562 0.00765625 7.46875 0.015625 C8.73074219 0.00789063 9.99273437 0.00015625 11.29296875 -0.0078125 C12.49566406 -0.00523437 13.69835937 -0.00265625 14.9375 0 C16.04544922 0.00225586 17.15339844 0.00451172 18.29492188 0.00683594 C20.96875 0.265625 20.96875 0.265625 22.96875 2.265625 C23.23866906 4.95401885 23.05612357 7.55704436 22.96875 10.265625 C20.32875 10.265625 17.68875 10.265625 14.96875 10.265625 C14.96875 9.275625 14.96875 8.285625 14.96875 7.265625 C10.01875 7.265625 5.06875 7.265625 -0.03125 7.265625 C0.29875 13.865625 0.62875 20.465625 0.96875 27.265625 C5.25875 27.265625 9.54875 27.265625 13.96875 27.265625 C14.29875 26.275625 14.62875 25.285625 14.96875 24.265625 C17.60875 24.265625 20.24875 24.265625 22.96875 24.265625 C23.04971803 25.72304963 23.10792774 27.18175307 23.15625 28.640625 C23.20845703 29.85878906 23.20845703 29.85878906 23.26171875 31.1015625 C23.16503906 31.81570313 23.06835938 32.52984375 22.96875 33.265625 C18.0854404 36.52116473 12.64408488 35.5934586 6.90625 35.578125 C5.69646484 35.59423828 4.48667969 35.61035156 3.24023438 35.62695312 C2.08716797 35.62759766 0.93410156 35.62824219 -0.25390625 35.62890625 C-1.31359619 35.63188721 -2.37328613 35.63486816 -3.46508789 35.63793945 C-4.31192139 35.51507568 -5.15875488 35.39221191 -6.03125 35.265625 C-8.46469446 31.6154583 -8.28889254 29.82720276 -8.296875 25.48046875 C-8.29878845 24.82357559 -8.3007019 24.16668243 -8.30267334 23.48988342 C-8.30403227 22.10384741 -8.30035619 20.71779855 -8.29199219 19.33178711 C-8.28127072 17.20723013 -8.29190541 15.08351539 -8.3046875 12.95898438 C-8.30336619 11.6119773 -8.30080438 10.26497074 -8.296875 8.91796875 C-8.29461914 7.69070068 -8.29236328 6.46343262 -8.29003906 5.19897461 C-7.79696192 -0.39000826 -4.85858868 0.00989241 0 0 Z " fill="#25B5FC" transform="translate(296.03125,354.734375)" data-index="10" style="visibility: visible;"></path>
<path d="M0 0 C1.32 0.33 2.64 0.66 4 1 C3.67 1.33 3.34 1.66 3 2 C2.57450096 7.10598848 3.46255794 10.74508829 5.203125 15.5234375 C6.37306841 19.15943808 6.9590413 22.85304376 7.5703125 26.6171875 C7.96592174 29.13584805 7.96592174 29.13584805 9 32 C11.39068734 33.10636395 11.39068734 33.10636395 14 34 C14.99 34.66 15.98 35.32 17 36 C16.34 36.66 15.68 37.32 15 38 C8.33555271 37.60797369 1.79263061 33.38313369 -3 29 C-4.23189021 26.93334208 -5.39498989 24.82469001 -6.5 22.6875 C-10.20813062 16.03686633 -14.29168514 13.45450623 -21.2421875 10.26953125 C-24 9 -24 9 -26 7 C-25.44444444 2.44444444 -25.44444444 2.44444444 -24 1 C-18.11987205 0.60134726 -15.2811736 1.3032305 -10 4 C-6.37306618 4.58414702 -6.37306618 4.58414702 -3 4 C-1.01760473 2.13875077 -1.01760473 2.13875077 0 0 Z " fill="#25B4FB" transform="translate(289,207)" data-index="11" style="visibility: visible;"></path>
<path d="M0 0 C4.15965359 0.36170901 6.25533905 0.86324463 9 4 C9.99 4.33 10.98 4.66 12 5 C11.67 3.35 11.34 1.7 11 0 C15.875 1.875 15.875 1.875 17 3 C17.35897436 9.46153846 17.35897436 9.46153846 15 13 C15.3778829 16.58988752 16.58424553 19.69657291 18 23 C18.99 22.67 19.98 22.34 21 22 C21.125 24.875 21.125 24.875 21 28 C19 30 19 30 15.875 30.375 C8.09810175 29.62239694 3.19440521 25.99305529 -1.72265625 20.0390625 C-3.45588289 17.27226034 -3.55674569 15.18140397 -3 12 C-2.67 12 -2.34 12 -2 12 C-1.93941406 11.21753906 -1.87882813 10.43507812 -1.81640625 9.62890625 C-1.73261719 8.61699219 -1.64882812 7.60507813 -1.5625 6.5625 C-1.48128906 5.55316406 -1.40007812 4.54382813 -1.31640625 3.50390625 C-1 1 -1 1 0 0 Z " fill="#0B1328" transform="translate(210,210)" data-index="12" style="visibility: visible;"></path>
<path d="M0 0 C10.56 0 21.12 0 32 0 C32 2.31 32 4.62 32 7 C28.04 7 24.08 7 20 7 C20 16.24 20 25.48 20 35 C17.36 35 14.72 35 12 35 C12 25.76 12 16.52 12 7 C8.04 7 4.08 7 0 7 C0 4.69 0 2.38 0 0 Z " fill="#25B5FC" transform="translate(151,355)" data-index="13" style="visibility: visible; opacity: 1;"></path>
<path d="M0 0 C3.36602602 1.44686642 5.43814568 3.27977075 7.9375 5.9375 C10.11876076 8.18717668 11.85144487 9.9130409 14.5625 11.5 C21.04023852 15.48630063 25.77137891 22.86113226 29.3125 29.4375 C34.52389808 37.35110449 41.78723785 41.56322045 50 46 C46.59838472 47.13387176 46.06359832 46.90351515 42.875 45.63671875 C42.08609375 45.32669922 41.2971875 45.01667969 40.484375 44.69726562 C39.66453125 44.36404297 38.8446875 44.03082031 38 43.6875 C37.18015625 43.36587891 36.3603125 43.04425781 35.515625 42.71289062 C32.06785547 41.34110651 29.10426354 40.06950903 26 38 C26 37.34 26 36.68 26 36 C25.41089844 35.896875 24.82179688 35.79375 24.21484375 35.6875 C18.48261023 33.90818236 14.84533369 28.06685718 12.0625 23.0625 C11.381875 21.721875 10.70125 20.38125 10 19 C10.99 22.3 11.98 25.6 13 29 C9.91422665 25.91422665 8.32864875 22.9314097 6.5 19.0625 C4.62558363 15.12131448 2.78919692 11.392956 0 8 C2.475 8.99 2.475 8.99 5 10 C4.54625 9.0925 4.0925 8.185 3.625 7.25 C2.41666667 4.83333333 1.20833333 2.41666667 0 0 Z " fill="#0F2D4A" transform="translate(235,223)" data-index="14" style="visibility: visible;"></path>
<path d="M0 0 C3.50502159 0.09473031 4.81281087 0.82266293 7.375 3.25 C10.41849275 8.19263222 8.74389677 14.5501476 8 20 C7.32453125 20.12117188 6.6490625 20.24234375 5.953125 20.3671875 C5.06109375 20.53476563 4.1690625 20.70234375 3.25 20.875 C1.92742187 21.11863281 1.92742187 21.11863281 0.578125 21.3671875 C-1.88093043 21.97077383 -3.7610946 22.85244388 -6 24 C-12.71576909 24.94020767 -17.32247388 22.19860626 -23 19 C-19.91702073 15.74085049 -17.0838669 12.93446327 -13 11 C-12.01 11.33 -11.02 11.66 -10 12 C-9.01 12 -8.02 12 -7 12 C-6.01 12 -5.02 12 -4 12 C-4.33 11.01 -4.66 10.02 -5 9 C-3.68 8.67 -2.36 8.34 -1 8 C-1.0309375 6.2984375 -1.0309375 6.2984375 -1.0625 4.5625 C-1 1 -1 1 0 0 Z " fill="#0F2C47" transform="translate(291,186)" data-index="15" style="visibility: visible;"></path>
<path d="M0 0 C5.84365051 5.55146799 9.94517524 12.37902461 14.25 19.125 C14.8996875 20.12660156 15.549375 21.12820313 16.21875 22.16015625 C16.83234375 23.12050781 17.4459375 24.08085937 18.078125 25.0703125 C18.63918945 25.94445801 19.20025391 26.81860352 19.77832031 27.71923828 C21 30 21 30 21 33 C20.34 33 19.68 33 19 33 C15 26.25 15 26.25 15 24 C13.35 24.33 11.7 24.66 10 25 C9.7525 24.360625 9.505 23.72125 9.25 23.0625 C8.03378366 20.50980961 8.03378366 20.50980961 4 20 C4.99 25.94 5.98 31.88 7 38 C6.01 38.495 6.01 38.495 5 39 C5 38.01 5 37.02 5 36 C4.34 36 3.68 36 3 36 C2.67 34.02 2.34 32.04 2 30 C1.01 30 0.02 30 -1 30 C-1.50734284 27.6263603 -2.00602386 25.25142575 -2.5 22.875 C-2.64308594 22.20984375 -2.78617188 21.5446875 -2.93359375 20.859375 C-3.75995851 16.84560332 -4.28041284 13.09646578 -4 9 C-2.625 7.125 -2.625 7.125 -1 6 C-0.34 6 0.32 6 1 6 C0.67 4.02 0.34 2.04 0 0 Z " fill="#0D2139" transform="translate(243,252)" data-index="16" style="visibility: visible;"></path>
<path d="M0 0 C4.95 0 9.9 0 15 0 C15.02683436 3.31255326 15.0467578 6.62489183 15.0625 9.9375 C15.07087891 10.88302734 15.07925781 11.82855469 15.08789062 12.80273438 C15.09111328 13.70185547 15.09433594 14.60097656 15.09765625 15.52734375 C15.10289307 16.35999756 15.10812988 17.19265137 15.11352539 18.05053711 C15 20 15 20 14 21 C11.83519203 21.0989294 9.66706215 21.129711 7.5 21.125 C6.3140625 21.12757813 5.128125 21.13015625 3.90625 21.1328125 C1 21 1 21 0 20 C-0.08669432 18.5112814 -0.10703494 17.018555 -0.09765625 15.52734375 C-0.09443359 14.62822266 -0.09121094 13.72910156 -0.08789062 12.80273438 C-0.07951172 11.85720703 -0.07113281 10.91167969 -0.0625 9.9375 C-0.05798828 8.98810547 -0.05347656 8.03871094 -0.04882812 7.06054688 C-0.03700128 4.70700469 -0.01906521 2.35349468 0 0 Z " fill="#0C1A31" transform="translate(257,362)" data-index="17" style="visibility: visible; opacity: 1;"></path>
<path d="M0 0 C6.27175757 0.78535236 9.83123946 4.48838812 14 9 C16.5114156 12.79791733 17.98664069 16.58039091 19 21 C19.29197266 22.01126953 19.29197266 22.01126953 19.58984375 23.04296875 C20.04055752 25.82321436 20.00341489 27.33839949 19 30 C12.1658329 36.11169801 2.97229432 41.03938754 -6 43 C-6.66 42.67 -7.32 42.34 -8 42 C-4.53362094 39.45327253 -1.19062965 37.04998182 2.625 35.0625 C6.29488793 32.81979071 9.17837435 30.93502683 11 27 C11.98612617 22.7639989 12.02062953 19.23352964 11 15 C8.96960758 11.79604077 6.75600648 9.13974024 4.1640625 6.375 C2.25208617 4.27665775 1.09148455 2.59077651 0 0 Z " fill="#196A9A" transform="translate(252,161)" data-index="18" style="visibility: visible;"></path>
<path d="M0 0 C4.00383293 0.71396803 7.37326211 2.62983615 10.91796875 4.52734375 C11.57581863 4.87632217 12.23366852 5.2253006 12.91145325 5.58485413 C14.29688559 6.32152493 15.6811153 7.06046138 17.06420898 7.80151367 C19.18667739 8.9370599 21.31469429 10.06166868 23.44335938 11.18554688 C24.78941113 11.90299213 26.13512626 12.62106938 27.48046875 13.33984375 C28.11897263 13.67636459 28.7574765 14.01288544 29.41532898 14.35960388 C33.88528045 16.7705609 33.88528045 16.7705609 35 19 C34.505 20.485 34.505 20.485 34 22 C32.06372079 21.03186039 30.30440272 19.94971293 28.48046875 18.78515625 C27.78759766 18.34623047 27.09472656 17.90730469 26.38085938 17.45507812 C24.92873719 16.53311631 23.47818944 15.60866962 22.02929688 14.68164062 C18.44149015 12.41478401 15.03933765 10.38877031 11 9 C11.144375 9.59167969 11.28875 10.18335938 11.4375 10.79296875 C12.40822694 14.92529941 13.27593702 18.7229762 13 23 C11.02 23.33 9.04 23.66 7 24 C6.375 21.6875 6.375 21.6875 6 19 C6.66 18.01 7.32 17.02 8 16 C8.07905064 13.66800612 8.08798769 11.33167378 8 9 C6.68 8.34 5.36 7.68 4 7 C4 8.32 4 9.64 4 11 C1.4800269 10.5500048 0.11819916 10.0984993 -1.875 8.4375 C-4.74066161 6.49896421 -6.61302799 6.55822104 -10 7 C-11.93395001 9.90092502 -12.30131941 10.89674737 -12.625 14.1875 C-12.74875 15.445625 -12.8725 16.70375 -13 18 C-15 16 -15 16 -15.375 12.125 C-15.26887395 9.34045463 -15.03538418 8.06571347 -13.6875 5.5625 C-9.41758009 3.07998843 -4.86215463 3.1676605 0 3 C0 2.01 0 1.02 0 0 Z " fill="#196492" transform="translate(218,204)" data-index="19" style="visibility: visible;"></path>
<path d="M0 0 C1.41873369 2.83746738 0.60615688 4.40387752 -0.1875 7.4375 C-0.42855469 8.40558594 -0.66960937 9.37367188 -0.91796875 10.37109375 C-2 13 -2 13 -4.06640625 14.4921875 C-6.27369092 15.88496833 -6.27369092 15.88496833 -6.609375 18.69921875 C-6.67898437 20.17841797 -6.67898437 20.17841797 -6.75 21.6875 C-6.80671875 22.68136719 -6.8634375 23.67523438 -6.921875 24.69921875 C-6.94765625 25.45847656 -6.9734375 26.21773438 -7 27 C-9 25.75 -9 25.75 -11 24 C-11 22.68 -11 21.36 -11 20 C-14.96 20.66 -18.92 21.32 -23 22 C-22.67 20.35 -22.34 18.7 -22 17 C-21.34 16.67 -20.68 16.34 -20 16 C-19.63451555 14.67511887 -19.3062434 13.33981486 -19 12 C-17.60762084 8.39703949 -15.98519056 7.03504663 -12.625 5.1875 C-11.85414063 4.74792969 -11.08328125 4.30835938 -10.2890625 3.85546875 C-7.62887202 2.861302 -6.64888246 3.19879481 -4 4 C-3.01 3.67 -2.02 3.34 -1 3 C-0.67 2.01 -0.34 1.02 0 0 Z " fill="#221931" transform="translate(261,292)" data-index="20" style="visibility: visible;"></path>
<path d="M0 0 C0 5.61 0 11.22 0 17 C-0.99 17.33 -1.98 17.66 -3 18 C-4.32 16.02 -5.64 14.04 -7 12 C-7.2012859 14.16555765 -7.2012859 14.16555765 -5.4375 16.0625 C-3.39160368 20.24324465 -3.82460757 23.56410119 -5 28 C-7.08910687 31.63659344 -8.35380047 32.73903481 -12.25 34.3125 C-13.61125 34.6528125 -13.61125 34.6528125 -15 35 C-15.495 33.515 -15.495 33.515 -16 32 C-15.05125 31.5875 -14.1025 31.175 -13.125 30.75 C-9.44901809 28.69786366 -9.44901809 28.69786366 -8 25 C-7.36106759 20.80130134 -7.80004918 19.31168804 -10.125 15.6875 C-13.25413669 12.76243744 -14.79524165 12.19557016 -19 12 C-18.34 11.01 -17.68 10.02 -17 9 C-15.35 9.33 -13.7 9.66 -12 10 C-12 9.34 -12 8.68 -12 8 C-13.32 7.67 -14.64 7.34 -16 7 C-16 6.34 -16 5.68 -16 5 C-13.69 5.33 -11.38 5.66 -9 6 C-11.475 5.01 -11.475 5.01 -14 4 C-11.8244694 1.8244694 -10.44026108 1.28120447 -7.5625 0.3125 C-6.78003906 0.04050781 -5.99757812 -0.23148438 -5.19140625 -0.51171875 C-3 -1 -3 -1 0 0 Z " fill="#1C1228" transform="translate(248,160)" data-index="21" style="visibility: visible;"></path>
<path d="M0 0 C2.97 0.495 2.97 0.495 6 1 C4.45419138 20.05728237 -0.92434469 37.53785596 -14 52 C-16.3125 52.875 -16.3125 52.875 -18 53 C-16.28789818 49.40019618 -14.23326502 46.04373542 -12.1875 42.625 C-8.13726875 35.67990959 -5.38147966 28.69624524 -3 21 C-2.76539063 20.27425781 -2.53078125 19.54851562 -2.2890625 18.80078125 C-0.52251743 12.69467981 -0.36577463 6.31442525 0 0 Z " fill="#24B0F6" transform="translate(223,259)" data-index="22" style="visibility: visible;"></path>
<path d="M0 0 C1.16144531 0.00902344 2.32289063 0.01804688 3.51953125 0.02734375 C4.39996094 0.03894531 5.28039062 0.05054688 6.1875 0.0625 C5.8575 1.0525 5.5275 2.0425 5.1875 3.0625 C4.39988281 3.16046875 3.61226562 3.2584375 2.80078125 3.359375 C-15.06727124 5.81226741 -28.76460136 11.26490653 -40.8125 25.0625 C-42.29713433 27.0206123 -43.56248585 28.94291078 -44.8125 31.0625 C-46.1325 30.7325 -47.4525 30.4025 -48.8125 30.0625 C-48.40910458 25.15900454 -46.00171793 22.55519086 -42.625 19.25 C-42.09471191 18.72664063 -41.56442383 18.20328125 -41.01806641 17.6640625 C-30.1231374 7.34288448 -15.11704846 -0.15269746 0 0 Z " fill="#24AEF4" transform="translate(240.8125,146.9375)" data-index="23" style="visibility: visible;"></path>
<path d="M0 0 C0.99 0 1.98 0 3 0 C3.91100399 17.84049475 -0.59459619 34.33578589 -10.5625 49.25 C-10.93850342 49.82379395 -11.31450684 50.39758789 -11.7019043 50.98876953 C-12.81640625 52.578125 -12.81640625 52.578125 -15 55 C-16.32 55 -17.64 55 -19 55 C-19.5365001 51.39778506 -19.73141185 49.16381886 -17.7578125 46.0234375 C-16.56490487 44.55566637 -15.35926293 43.09819874 -14.14453125 41.6484375 C-3.4022801 28.38205083 0.61476939 17.0769274 0 0 Z " fill="#24B0F6" transform="translate(218,257)" data-index="24" style="visibility: visible;"></path>
<path d="M0 0 C0.99 0 1.98 0 3 0 C3.33 0.66 3.66 1.32 4 2 C4.99 2.33 5.98 2.66 7 3 C6.5021137 6.68435865 5.66506511 10.08899573 4.5625 13.625 C2.1334297 22.18628208 1.72326632 31.16368521 1 40 C-0.32 40 -1.64 40 -3 40 C-3.3801205 35.66934139 -3.70953539 31.3376048 -4 27 C-4.05671875 26.154375 -4.1134375 25.30875 -4.171875 24.4375 C-4.43131435 16.7580951 -3.46786799 6.93573598 0 0 Z " fill="#25B4FB" transform="translate(186,178)" data-index="25" style="visibility: visible;"></path>
<path d="M0 0 C1.9375 0.625 1.9375 0.625 4 2 C5.73781787 7.74888939 4.48788256 13.34208747 3.5 19.125 C3.36335937 20.11371094 3.22671875 21.10242188 3.0859375 22.12109375 C1.87949776 29.19695858 1.87949776 29.19695858 -0.71875 31.56933594 C-2.65625 32.6796875 -2.65625 32.6796875 -6 34 C-6.49049416 22.04647563 -5.77315417 10.73774334 0 0 Z " fill="#25B3FA" transform="translate(195,183)" data-index="26" style="visibility: visible;"></path>
<path d="M0 0 C0.66 0 1.32 0 2 0 C-0.0824341 7.58316384 -2.8160229 14.76133948 -5.875 22 C-6.29652344 23.01578125 -6.71804687 24.0315625 -7.15234375 25.078125 C-9.55293797 30.80431304 -12.11973768 36.35899173 -15.0559082 41.83154297 C-16.46369803 45.06505453 -16.37733068 47.52855779 -16 51 C-16.66 51 -17.32 51 -18 51 C-18.33 48.69 -18.66 46.38 -19 44 C-19.79953138 47.28696233 -20.09658936 48.71023192 -19 52 C-19.66 52 -20.32 52 -21 52 C-23.29013653 48.5647952 -23.17842973 47.014669 -23 43 C-23.66 43 -24.32 43 -25 43 C-25.33 45.31 -25.66 47.62 -26 50 C-26.33 50 -26.66 50 -27 50 C-27.49218077 43.32821626 -27.43632322 37.37736147 -23 32 C-19.75 30.5 -19.75 30.5 -17 30 C-16.34 30.66 -15.68 31.32 -15 32 C-14.01 32 -13.02 32 -12 32 C-11.60167969 30.76378906 -11.20335937 29.52757812 -10.79296875 28.25390625 C-8.84144241 22.39932724 -6.58203848 16.67469057 -4.3125 10.9375 C-3.68891602 9.35291992 -3.68891602 9.35291992 -3.05273438 7.73632812 C-2.03723432 5.15672453 -1.01961715 2.57797839 0 0 Z " fill="#4A152F" transform="translate(235,277)" data-index="27" style="visibility: visible;"></path>
<path d="M0 0 C0.99 0.99 1.98 1.98 3 3 C5.62570704 3.25069913 5.62570704 3.25069913 8 3 C7 6 7 6 4.9375 7.1875 C4.298125 7.455625 3.65875 7.72375 3 8 C2.7497843 10.91634129 2.7497843 10.91634129 3 14 C5.78114056 16.33391203 5.78114056 16.33391203 8.6875 15.625 C9.450625 15.41875 10.21375 15.2125 11 15 C11.33 15.99 11.66 16.98 12 18 C12.66 18 13.32 18 14 18 C14 17.34 14 16.68 14 16 C15.9375 16.3125 15.9375 16.3125 18 17 C18.33 17.99 18.66 18.98 19 20 C19.99 19.67 20.98 19.34 22 19 C22.125 21.875 22.125 21.875 22 25 C20 27 20 27 16.875 27.375 C9.09810175 26.62239694 4.19440521 22.99305529 -0.72265625 17.0390625 C-2.45588289 14.27226034 -2.55674569 12.18140397 -2 9 C-1.67 9 -1.34 9 -1 9 C-0.67 6.03 -0.34 3.06 0 0 Z " fill="#0F2842" transform="translate(209,213)" data-index="28" style="visibility: visible;"></path>
<path d="M0 0 C4.9723422 1.49170266 9.41845739 3.60457417 14 6 C14 5.01 14 4.02 14 3 C18.74018901 4.83491188 23.36413251 6.91941459 28 9 C26.68 9.99 25.36 10.98 24 12 C25.12019531 11.91621094 26.24039062 11.83242187 27.39453125 11.74609375 C28.86716556 11.64291555 30.33982308 11.54006821 31.8125 11.4375 C32.55048828 11.38142578 33.28847656 11.32535156 34.04882812 11.26757812 C37.36788516 11.04230276 39.81232564 10.93744188 43 12 C43 14.31 43 16.62 43 19 C25.53735632 18.57614943 25.53735632 18.57614943 19 14 C18.70867187 13.33613281 18.41734375 12.67226562 18.1171875 11.98828125 C16.56327949 9.22275965 14.96746894 9.01287374 12 8 C9.88689422 6.97658867 7.78289108 5.93420868 5.6875 4.875 C4.61886719 4.33617187 3.55023438 3.79734375 2.44921875 3.2421875 C1.23685547 2.62730469 1.23685547 2.62730469 0 2 C0 1.34 0 0.68 0 0 Z " fill="#0C1A31" transform="translate(275,236)" data-index="29" style="visibility: visible;"></path>
<path d="M0 0 C3.03143071 0.20906419 4.04424177 1.04301283 6.25 3.1875 C8.35482181 6.57024934 8.63959034 8.08250919 8 12 C6.2447057 15.3805668 4.94088808 17.45527532 1.625 19.375 C-1.33154419 20.07893909 -3.97121241 20.14087384 -7 20 C-8.12055703 16.63832891 -7.97585489 16.29170668 -6.6015625 13.2421875 C-6.28703125 12.53449219 -5.9725 11.82679688 -5.6484375 11.09765625 C-5.31070313 10.36417969 -4.97296875 9.63070312 -4.625 8.875 C-4.295 8.13378906 -3.965 7.39257812 -3.625 6.62890625 C-1.16998027 1.16998027 -1.16998027 1.16998027 0 0 Z " fill="#BC1A3E" transform="translate(233,173)" data-index="30" style="visibility: visible;"></path>
<path d="M0 0 C9.45225262 3.4647792 9.45225262 3.4647792 12.27734375 6.79296875 C7.05615699 6.20457076 2.46484573 4.9966894 -2.47265625 3.23046875 C-7.46625928 1.39492797 -7.46625928 1.39492797 -12.72265625 0.79296875 C-8.76265625 2.11296875 -4.80265625 3.43296875 -0.72265625 4.79296875 C-0.72265625 5.12296875 -0.72265625 5.45296875 -0.72265625 5.79296875 C-5.63268863 5.39598741 -10.42039 4.9140553 -15.22265625 3.79296875 C-22.91863972 2.1349916 -30.88087234 2.11757418 -38.72265625 1.79296875 C-37.40265625 0.80296875 -36.08265625 -0.18703125 -34.72265625 -1.20703125 C-35.38265625 -1.86703125 -36.04265625 -2.52703125 -36.72265625 -3.20703125 C-26.90723624 -8.11474125 -9.50037131 -3.08039322 0 0 Z " fill="#1E89C3" transform="translate(273.72265625,139.20703125)" data-index="31" style="visibility: visible;"></path>
<path d="M0 0 C2.09771789 2.58766107 4.14321129 5.19411328 6.12109375 7.875 C12.40331385 16.35017046 19.38695444 23.70913661 27 31 C24.64046906 33.35953094 23.22104383 33.49141413 20 34 C19.67128906 33.45472656 19.34257812 32.90945313 19.00390625 32.34765625 C16.2011613 27.90428012 13.29722394 24.14302195 9.5 20.5 C3.70260557 14.89813321 -0.96680519 8.92945975 -3 1 C-2.01 0.67 -1.02 0.34 0 0 Z " fill="#24AEF3" transform="translate(190,224)" data-index="32" style="visibility: visible;"></path>
<path d="M0 0 C1.10408203 0.10828125 1.10408203 0.10828125 2.23046875 0.21875 C3.69419922 0.35796875 3.69419922 0.35796875 5.1875 0.5 C6.15042969 0.5928125 7.11335937 0.685625 8.10546875 0.78125 C10.75187667 0.98124844 13.34760865 1.03879183 16 1 C16.33 2.32 16.66 3.64 17 5 C15.35 5.33 13.7 5.66 12 6 C13.32 6 14.64 6 16 6 C16.66 6.33 17.32 6.66 18 7 C11.0527936 12.94736032 11.0527936 12.94736032 7.5 13.125 C3.94070439 11.52331698 0.44388762 9.83730977 -3 8 C-3.33 8.66 -3.66 9.32 -4 10 C-3.43454163 6.04179141 -2.19097652 3.3340947 0 0 Z " fill="#0E1327" transform="translate(221,196)" data-index="33" style="visibility: visible;"></path>
<path d="M0 0 C0.515625 0.268125 1.03125 0.53625 1.5625 0.8125 C6.27849807 3.11003752 10.78163148 5.2093381 16 6 C11.25 9.875 11.25 9.875 9 11 C9.66 11.66 10.32 12.32 11 13 C4.2061865 13.11713472 0.01312436 11.17596344 -5.5625 7.5625 C-6.19430176 7.15459229 -6.82610352 6.74668457 -7.47705078 6.32641602 C-9.02898488 5.28049175 -10.52092818 4.14664885 -12 3 C-12 2.34 -12 1.68 -12 1 C-8.04 1.33 -4.08 1.66 0 2 C0 1.34 0 0.68 0 0 Z " fill="#102F4B" transform="translate(291,248)" data-index="34" style="visibility: visible;"></path>
<path d="M0 0 C1.37478516 0.01740234 1.37478516 0.01740234 2.77734375 0.03515625 C3.69644531 0.04417969 4.61554688 0.05320313 5.5625 0.0625 C6.27277344 0.07410156 6.98304688 0.08570313 7.71484375 0.09765625 C6.99296875 1.19078125 6.27109375 2.28390625 5.52734375 3.41015625 C2.39118141 8.40113461 0.04840766 13.69570406 -2.28515625 19.09765625 C-5.44631401 17.72782122 -6.27786545 17.10859245 -8.28515625 14.09765625 C-8.86125307 8.99508439 -8.86125307 8.99508439 -8.28515625 6.09765625 C-5.84765625 3.16015625 -5.84765625 3.16015625 -3.28515625 1.09765625 C-2.28515625 0.09765625 -2.28515625 0.09765625 0 0 Z " fill="#6C1633" transform="translate(227.28515625,171.90234375)" data-index="35" style="visibility: visible;"></path>
<path d="M0 0 C2.375 0.125 2.375 0.125 5 1 C6.875 3.3125 6.875 3.3125 8 6 C7.6875 8.3125 7.6875 8.3125 7 10 C6.34 10 5.68 10 5 10 C5.33 11.98 5.66 13.96 6 16 C4.68 15.67 3.36 15.34 2 15 C2 15.66 2 16.32 2 17 C1.67 17.66 1.34 18.32 1 19 C0.34 17.35 -0.32 15.7 -1 14 C-1.33 14.66 -1.66 15.32 -2 16 C-2.66 16 -3.32 16 -4 16 C-4 16.66 -4 17.32 -4 18 C-7 17 -7 17 -8 16 C-8.66 16.33 -9.32 16.66 -10 17 C-11.66619446 17.0396713 -13.33391013 17.04384447 -15 17 C-12.64264116 14.27042661 -10.41866474 13.11106604 -7 12 C-6.01 12 -5.02 12 -4 12 C-4.33 11.01 -4.66 10.02 -5 9 C-3.68 8.67 -2.36 8.34 -1 8 C-1.020625 6.865625 -1.04125 5.73125 -1.0625 4.5625 C-1 1 -1 1 0 0 Z " fill="#0C1B31" transform="translate(291,186)" data-index="36" style="visibility: visible;"></path>
<path d="M0 0 C0.66 0 1.32 0 2 0 C2.91285374 3.50269161 3.30820514 5.34434621 1.7421875 8.67578125 C1.12601563 9.54589844 0.50984375 10.41601562 -0.125 11.3125 C-2.56390124 14.84286991 -4.68619803 18.2678153 -6.5625 22.125 C-8.55905949 25.85856625 -8.55905949 25.85856625 -12.3125 27.0625 C-13.199375 27.041875 -14.08625 27.02125 -15 27 C-12.87690196 19.38182469 -9.45041307 13.50444988 -5 7 C-4.50628906 6.25621094 -4.01257813 5.51242187 -3.50390625 4.74609375 C-2.39724676 3.12058501 -1.20729106 1.55223136 0 0 Z " fill="#113655" transform="translate(193,309)" data-index="37" style="visibility: visible;"></path>
<path d="M0 0 C3.79588866 0.54226981 5.47211993 2.20127563 8 5 C8.33 4.34 8.66 3.68 9 3 C12.48331435 6.01887244 13.79157144 8.56909529 15 13 C14.34 13 13.68 13 13 13 C12.67 12.34 12.34 11.68 12 11 C11.34 11.66 10.68 12.32 10 13 C9.34 13 8.68 13 8 13 C8.33 13.99 8.66 14.98 9 16 C8.01 16 7.02 16 6 16 C5.67 16.99 5.34 17.98 5 19 C2.78515625 20.640625 2.78515625 20.640625 0.0625 22.25 C-0.83339844 22.79140625 -1.72929687 23.3328125 -2.65234375 23.890625 C-3.42707031 24.25671875 -4.20179688 24.6228125 -5 25 C-5.66 24.67 -6.32 24.34 -7 24 C-4.03 22.02 -1.06 20.04 2 18 C1.855625 17.20335937 1.71125 16.40671875 1.5625 15.5859375 C1.376875 14.52632813 1.19125 13.46671875 1 12.375 C0.7215625 10.80878906 0.7215625 10.80878906 0.4375 9.2109375 C0.01284203 6.09425135 -0.07545206 3.14069188 0 0 Z " fill="#0D1F37" transform="translate(247,272)" data-index="38" style="visibility: visible;"></path>
<path d="M0 0 C2.28515625 -0.2890625 2.28515625 -0.2890625 5 0 C6.74609375 1.9140625 6.74609375 1.9140625 8.4375 4.625 C12.41055587 10.50086041 17.03710388 15.25380623 22.16381836 20.13916016 C25.35927437 23.21639714 27.93062373 26.01066092 30 30 C23.88857677 29.73146777 21.26160054 27.00817538 17.25 22.8125 C16.64526855 22.19479736 16.04053711 21.57709473 15.41748047 20.94067383 C0 4.80794942 0 4.80794942 0 0 Z " fill="#24ADF2" transform="translate(193,224)" data-index="39" style="visibility: visible;"></path>
<path d="M0 0 C2.72363329 1.36181664 2.96486228 2.86258987 4.1875 5.625 C6.62836328 10.67331367 9.5521168 14.55341752 14 18 C14.99 18.33 15.98 18.66 17 19 C17 19.66 17 20.32 17 21 C21.25163821 22.7171665 25.5264363 24.37105387 29.8125 26 C30.48603516 26.26039063 31.15957031 26.52078125 31.85351562 26.7890625 C35.36775231 28.12077324 38.7726055 29.20647455 42.44921875 30 C43.62097656 30.33 44.79273438 30.66 46 31 C46.495 32.485 46.495 32.485 47 34 C40.65184819 32.70756191 34.69143161 31.01427961 28.625 28.75 C27.79718018 28.4413501 26.96936035 28.1327002 26.11645508 27.81469727 C16.82980993 24.27394233 8.65767335 20.55735893 2 13 C2.33 12.01 2.66 11.02 3 10 C2.46805397 7.45981734 2.46805397 7.45981734 1.5625 4.8125 C1.13130859 3.46091797 1.13130859 3.46091797 0.69140625 2.08203125 C0.46324219 1.39496094 0.23507813 0.70789063 0 0 Z " fill="#0D1F37" transform="translate(244,240)" data-index="40" style="visibility: visible;"></path>
<path d="M0 0 C1.32 0.33 2.64 0.66 4 1 C4.05791844 4.12492251 4.09356746 7.24970766 4.125 10.375 C4.14175781 11.26445312 4.15851563 12.15390625 4.17578125 13.0703125 C4.18222656 13.92109375 4.18867188 14.771875 4.1953125 15.6484375 C4.20578613 16.43395996 4.21625977 17.21948242 4.22705078 18.02880859 C4 20 4 20 2 22 C1.50583881 23.99992488 1.50583881 23.99992488 1.1875 26.25 C0.20893593 31.09584925 -1.47493685 33.56306343 -5 37 C-5.66 37 -6.32 37 -7 37 C-6.73323796 38.98491642 -6.73323796 38.98491642 -6 41 C-5.01 41.33 -4.02 41.66 -3 42 C-5.51407619 46.28324091 -7.12314139 48.64531705 -12 50 C-10.02 47.525 -10.02 47.525 -8 45 C-9.98 45.495 -9.98 45.495 -12 46 C-12 45.34 -12 44.68 -12 44 C-9.525 43.505 -9.525 43.505 -7 43 C-7.495 41.515 -7.495 41.515 -8 40 C-8.77085937 40.01160156 -9.54171875 40.02320313 -10.3359375 40.03515625 C-11.84027344 40.04869141 -11.84027344 40.04869141 -13.375 40.0625 C-14.37273437 40.07410156 -15.37046875 40.08570313 -16.3984375 40.09765625 C-19 40 -19 40 -21 39 C-21 38.34 -21 37.68 -21 37 C-20.27554688 36.97421875 -19.55109375 36.9484375 -18.8046875 36.921875 C-12.85060689 36.57256894 -8.565565 36.21436769 -4 32 C-1.89136571 28.35781349 -1.49037797 25.16191328 -2 21 C-3.30581356 18.9819245 -4.63636792 16.97946592 -6 15 C-5.67 14.01 -5.34 13.02 -5 12 C0 17.75 0 17.75 0 20 C0.66 19.67 1.32 19.34 2 19 C2.05380578 16.20807795 2.09357669 13.4171859 2.125 10.625 C2.14175781 9.8309375 2.15851563 9.036875 2.17578125 8.21875 C2.19335473 6.14507985 2.10335168 4.07116759 2 2 C1.34 1.34 0.68 0.68 0 0 Z " fill="#9E193A" transform="translate(245,158)" data-index="41" style="visibility: visible;"></path>
<path d="M0 0 C0.99 0 1.98 0 3 0 C3.88276501 4.07304203 4.75529353 8.14810196 5.6184082 12.2253418 C5.91345422 13.61200942 6.21128765 14.998087 6.51196289 16.38354492 C6.94371262 18.37530275 7.36538774 20.3689686 7.78515625 22.36328125 C8.04176025 23.56251221 8.29836426 24.76174316 8.56274414 25.99731445 C9 29 9 29 8 32 C7.67 31.01 7.34 30.02 7 29 C6.34 29 5.68 29 5 29 C4.67 27.02 4.34 25.04 4 23 C3.01 23 2.02 23 1 23 C0.49265716 20.6263603 -0.00602386 18.25142575 -0.5 15.875 C-0.64308594 15.20984375 -0.78617188 14.5446875 -0.93359375 13.859375 C-1.75915802 9.84949141 -2.33996827 6.09176097 -2 2 C-1.34 1.34 -0.68 0.68 0 0 Z " fill="#0E263F" transform="translate(241,259)" data-index="42" style="visibility: visible;"></path>
<path d="M0 0 C0.75410156 0.00322266 1.50820312 0.00644531 2.28515625 0.00976562 C3.06246094 0.01814453 3.83976562 0.02652344 4.640625 0.03515625 C5.43339844 0.03966797 6.22617188 0.04417969 7.04296875 0.04882812 C8.99222008 0.0605706 10.94143238 0.07850479 12.890625 0.09765625 C12.890625 0.42765625 12.890625 0.75765625 12.890625 1.09765625 C11.18519531 1.22720703 11.18519531 1.22720703 9.4453125 1.359375 C-8.94827432 2.95037723 -24.92052199 8.53526275 -38.109375 22.09765625 C-40.23532536 24.68339458 -42.2165821 27.33733327 -44.109375 30.09765625 C-44.769375 29.76765625 -45.429375 29.43765625 -46.109375 29.09765625 C-31.07961659 8.09863209 -31.07961659 8.09863209 -20.66796875 5.7109375 C-17.05806942 4.84566392 -13.75090227 3.39979637 -10.3359375 1.96484375 C-6.83604037 0.60172592 -3.75710107 -0.02846289 0 0 Z " fill="#24A9ED" transform="translate(235.109375,143.90234375)" data-index="43" style="visibility: visible;"></path>
<path d="M0 0 C4.95 0 9.9 0 15 0 C15.09765625 6.15234375 15.09765625 6.15234375 15 8 C14 9 14 9 10.83984375 9.09765625 C8.90818359 9.08025391 8.90818359 9.08025391 6.9375 9.0625 C5.64714844 9.05347656 4.35679688 9.04445313 3.02734375 9.03515625 C2.02832031 9.02355469 1.02929688 9.01195312 0 9 C0 6.03 0 3.06 0 0 Z " fill="#0C1A31" transform="translate(122,362)" data-index="44" style="visibility: visible; opacity: 1;"></path>
<path d="M0 0 C-2.97 0.99 -5.94 1.98 -9 3 C-7.02 4.32 -5.04 5.64 -3 7 C-6.61029169 7 -9.55806676 6.03907418 -13 5 C-12.67 5.66 -12.34 6.32 -12 7 C-11.01 7.33 -10.02 7.66 -9 8 C-9 8.66 -9 9.32 -9 10 C-10.08667969 9.93039063 -10.08667969 9.93039063 -11.1953125 9.859375 C-17.31967705 9.63073206 -21.26922173 9.63312775 -26 14 C-28.22821256 17.40695982 -28.21222168 20.23780261 -28.125 24.25 C-28.10695312 25.32765625 -28.08890625 26.4053125 -28.0703125 27.515625 C-28.04710937 28.33546875 -28.02390625 29.1553125 -28 30 C-28.66 29.67 -29.32 29.34 -30 29 C-30 28.34 -30 27.68 -30 27 C-30.66 26.67 -31.32 26.34 -32 26 C-31.7321679 19.97377769 -31.14253112 15.68760101 -27 11 C-22.88954495 7.79743672 -19.25139479 6.4876688 -14 7 C-14 6.34 -14 5.68 -14 5 C-17.63 5.66 -21.26 6.32 -25 7 C-25 6.34 -25 5.68 -25 5 C-20.93825275 3.10451795 -16.87623682 2.32623637 -12.50390625 1.51171875 C-10.29624005 1.06054204 -8.20825695 0.49130634 -6.0625 -0.1875 C-3 -1 -3 -1 0 0 Z " fill="#611632" transform="translate(245,160)" data-index="45" style="visibility: visible;"></path>
<path d="M0 0 C0 0.33 0 0.66 0 1 C-2.64 1.33 -5.28 1.66 -8 2 C-8 2.33 -8 2.66 -8 3 C-9.41543415 3.19658808 -10.83244031 3.38187546 -12.25 3.5625 C-13.03890625 3.66691406 -13.8278125 3.77132812 -14.640625 3.87890625 C-17.01296453 4.0006654 -18.72106426 3.57947298 -21 3 C-21.99 3.495 -21.99 3.495 -23 4 C-23.66 3.67 -24.32 3.34 -25 3 C-25.33 3.66 -25.66 4.32 -26 5 C-25.34 5.66 -24.68 6.32 -24 7 C-24.99 7.33 -25.98 7.66 -27 8 C-27 8.66 -27 9.32 -27 10 C-28.43429001 10.67354499 -29.87257057 11.33859701 -31.3125 12 C-32.51326172 12.556875 -32.51326172 12.556875 -33.73828125 13.125 C-36 14 -36 14 -39 14 C-39.33 13.01 -39.66 12.02 -40 11 C-28.13988702 -0.15300598 -15.4378363 -2.04891126 0 0 Z " fill="#10324F" transform="translate(251,137)" data-index="46" style="visibility: visible;"></path>
<path d="M0 0 C-0.33 0.99 -0.66 1.98 -1 3 C-1.78761719 2.95359375 -2.57523438 2.9071875 -3.38671875 2.859375 C-19.22245301 2.33464061 -33.60490829 8.0948193 -45.5 18.5625 C-49.87498919 22.73152379 -53.64281791 26.96422686 -57 32 C-57 31.34 -57 30.68 -57 30 C-57.66 29.67 -58.32 29.34 -59 29 C-57.948125 27.9790625 -57.948125 27.9790625 -56.875 26.9375 C-54.87215184 24.95690571 -53.11840686 22.89716684 -51.375 20.6875 C-41.85012426 9.5103499 -26.69423338 1.77555757 -12.19921875 0.15234375 C-8.13491737 -0.12919755 -4.0712117 -0.07508382 0 0 Z " fill="#13466A" transform="translate(248,145)" data-index="47" style="visibility: visible;"></path>
<path d="M0 0 C7.72885284 6.21668598 7.72885284 6.21668598 8.40625 10.671875 C8.69051155 20.00512906 8.69051155 20.00512906 5.25 24.0625 C2.99800291 26.25045926 0.63194249 28.27911452 -2 30 C-2.66 29.67 -3.32 29.34 -4 29 C-3.65066406 28.45730469 -3.30132812 27.91460937 -2.94140625 27.35546875 C-2.48636719 26.64003906 -2.03132812 25.92460937 -1.5625 25.1875 C-1.11003906 24.47980469 -0.65757812 23.77210938 -0.19140625 23.04296875 C2.89934869 17.74308406 2.33701812 11.94876176 2 6 C1.15697007 2.44457748 1.15697007 2.44457748 0 0 Z " fill="#102E4B" transform="translate(256,168)" data-index="48" style="visibility: visible;"></path>
<path d="M0 0 C1.41873369 2.83746738 0.60615688 4.40387752 -0.1875 7.4375 C-0.42855469 8.40558594 -0.66960937 9.37367188 -0.91796875 10.37109375 C-2 13 -2 13 -4.06640625 14.4921875 C-6.27369092 15.88496833 -6.27369092 15.88496833 -6.609375 18.69921875 C-6.65578125 19.68535156 -6.7021875 20.67148437 -6.75 21.6875 C-6.80671875 22.68136719 -6.8634375 23.67523438 -6.921875 24.69921875 C-6.94765625 25.45847656 -6.9734375 26.21773438 -7 27 C-9.19397469 25.56564995 -10.73390012 24.52883141 -11.92578125 22.16015625 C-12.72560858 17.82169891 -12.36873515 15.63801891 -10.1171875 11.7421875 C-7.92990361 8.65657917 -5.61128785 5.74115652 -3 3 C-2.34 3 -1.68 3 -1 3 C-0.67 2.01 -0.34 1.02 0 0 Z " fill="#113452" transform="translate(261,292)" data-index="49" style="visibility: visible;"></path>
<path d="M0 0 C0.99 0 1.98 0 3 0 C4.19774153 4.1845147 3.75345375 6.50186528 2.125 10.5 C-0.62465734 17.34530079 -1.22997501 23.50240152 -1.5625 30.8125 C-1.60568359 31.69615234 -1.64886719 32.57980469 -1.69335938 33.49023438 C-1.79891536 35.65999623 -1.89991071 37.8299791 -2 40 C-2.33 40 -2.66 40 -3 40 C-3.3801205 35.66934139 -3.70953539 31.3376048 -4 27 C-4.05671875 26.154375 -4.1134375 25.30875 -4.171875 24.4375 C-4.43131435 16.7580951 -3.46786799 6.93573598 0 0 Z " fill="#196492" transform="translate(186,178)" data-index="50" style="visibility: visible;"></path>
<path d="M0 0 C4.40841108 3.01315639 6.06131959 5.63456259 7.875 10.625 C8.30554688 11.77226562 8.73609375 12.91953125 9.1796875 14.1015625 C10 17 10 17 9 19 C7 16 7 16 7 13 C6.236875 13.474375 5.47375 13.94875 4.6875 14.4375 C2 16 2 16 -1 17 C-1.02709444 14.91673869 -1.04643873 12.83337559 -1.0625 10.75 C-1.07410156 9.58984375 -1.08570313 8.4296875 -1.09765625 7.234375 C-1.01782092 4.59022872 -0.78643778 2.50173909 0 0 Z " fill="#113959" transform="translate(277,161)" data-index="51" style="visibility: visible;"></path>
<path d="M0 0 C0.556875 0.350625 1.11375 0.70125 1.6875 1.0625 C4.53886783 2.21845993 6.08517222 1.80967438 9 1 C9.33 1.99 9.66 2.98 10 4 C10.66 4 11.32 4 12 4 C12 3.34 12 2.68 12 2 C13.9375 2.3125 13.9375 2.3125 16 3 C16.33 3.99 16.66 4.98 17 6 C17.99 5.67 18.98 5.34 20 5 C20.125 7.875 20.125 7.875 20 11 C18 13 18 13 15.375 13.125 C14.59125 13.08375 13.8075 13.0425 13 13 C13 11.35 13 9.7 13 8 C9.7 7.01 6.4 6.02 3 5 C3 4.34 3 3.68 3 3 C2.01 2.67 1.02 2.34 0 2 C0 1.34 0 0.68 0 0 Z " fill="#14496F" transform="translate(211,227)" data-index="52" style="visibility: visible;"></path>
<path d="M0 0 C3.0625 0.4375 3.0625 0.4375 4.9375 2.625 C6.084574 5.49268499 6.32406512 7.38590693 6.0625 10.4375 C4.60457116 10.49149736 3.14607288 10.53029177 1.6875 10.5625 C0.87539063 10.58570313 0.06328125 10.60890625 -0.7734375 10.6328125 C-2.9375 10.4375 -2.9375 10.4375 -4.9375 8.4375 C-5.1875 5.4375 -5.1875 5.4375 -4.9375 2.4375 C-2.9375 0.4375 -2.9375 0.4375 0 0 Z " fill="#24ACF1" transform="translate(309.9375,257.5625)" data-index="53" style="visibility: visible;"></path>
<path d="M0 0 C3.57577965 0.55967038 4.95887539 1.6946368 7.19921875 4.4921875 C7.76833984 5.19730469 8.33746094 5.90242188 8.92382812 6.62890625 C9.7968457 7.74072266 9.7968457 7.74072266 10.6875 8.875 C11.28111328 9.60847656 11.87472656 10.34195312 12.48632812 11.09765625 C16.85626631 16.56879892 16.85626631 16.56879892 18 20 C15.375 20 15.375 20 12 19 C9.64996117 16.58211228 7.88845336 13.78396072 6 11 C4.71999664 9.32435924 3.42843139 7.65748217 2.125 6 C1.52945313 5.236875 0.93390625 4.47375 0.3203125 3.6875 C-0.11539063 3.130625 -0.55109375 2.57375 -1 2 C-0.67 1.34 -0.34 0.68 0 0 Z " fill="#134063" transform="translate(237,327)" data-index="54" style="visibility: visible;"></path>
<path d="M0 0 C0.66 0 1.32 0 2 0 C-0.0824341 7.58316384 -2.8160229 14.76133948 -5.875 22 C-6.29652344 23.01578125 -6.71804687 24.0315625 -7.15234375 25.078125 C-9.55293797 30.80431304 -12.11973768 36.35899173 -15.0559082 41.83154297 C-16.46369803 45.06505453 -16.37733068 47.52855779 -16 51 C-16.66 51 -17.32 51 -18 51 C-19.28571429 43.57142857 -19.28571429 43.57142857 -18 40 C-17.34 40 -16.68 40 -16 40 C-14.20211767 35.58976746 -12.40570565 31.17893985 -10.6105957 26.76757812 C-10.00096385 25.27002176 -9.3909453 23.77262276 -8.78051758 22.27539062 C-7.89820847 20.11110008 -7.01733713 17.94622894 -6.13671875 15.78125 C-5.73340584 14.79324402 -5.73340584 14.79324402 -5.32194519 13.78527832 C-3.46670618 9.21886775 -1.71489521 4.62100203 0 0 Z " fill="#5D1631" transform="translate(235,277)" data-index="55" style="visibility: visible;"></path>
<path d="M0 0 C4.31044282 1.50865499 6.10590735 4.73035632 8.5 8.375 C14.38278425 16.98212424 21.44888599 24.9412723 30 31 C27.94921875 31.4140625 27.94921875 31.4140625 25 31 C22.31152994 29.08520748 20.09300628 26.75119185 17.8125 24.375 C17.15628662 23.70509033 16.50007324 23.03518066 15.82397461 22.3449707 C0 5.82803182 0 5.82803182 0 0 Z " fill="#123B5C" transform="translate(191,224)" data-index="56" style="visibility: visible;"></path>
<path d="M0 0 C1.16537113 1.16537113 2.32900651 2.33252386 3.484375 3.5078125 C4.52699696 4.53431144 5.60263024 5.52799255 6.703125 6.4921875 C8.375 8 8.375 8 11 11 C11 13.8125 11 13.8125 10 16 C9.34 16.33 8.68 16.66 8 17 C8 15.35 8 13.7 8 12 C6.56206608 12.31049726 5.1246682 12.6234776 3.6875 12.9375 C2.88699219 13.11152344 2.08648437 13.28554687 1.26171875 13.46484375 C-1.145401 13.99886159 -1.145401 13.99886159 -4 15 C-3.875 13.25 -3.875 13.25 -3 11 C0.0625 8.75 0.0625 8.75 3 7 C2.505 6.5875 2.01 6.175 1.5 5.75 C0 4 0 4 0 0 Z " fill="#23A8EC" transform="translate(311,211)" data-index="57" style="visibility: visible;"></path>
<path d="M0 0 C0.66 0 1.32 0 2 0 C1.20376222 8.75861562 -0.42197613 17.35560508 -2 26 C-2.99 26.33 -3.98 26.66 -5 27 C-5.57065989 17.44673071 -3.69053396 8.8091441 0 0 Z " fill="#1E7BB0" transform="translate(198,187)" data-index="58" style="visibility: visible;"></path>
<path d="M0 0 C0.69738281 0.01804688 1.39476562 0.03609375 2.11328125 0.0546875 C3.82611539 0.10161446 5.53823824 0.17335395 7.25 0.25 C7.25 2.58333333 7.25 4.91666667 7.25 7.25 C4.7300269 6.8000048 3.36819916 6.3484993 1.375 4.6875 C-1.49066161 2.74896421 -3.36302799 2.80822104 -6.75 3.25 C-8.68395001 6.15092502 -9.05131941 7.14674737 -9.375 10.4375 C-9.49875 11.695625 -9.6225 12.95375 -9.75 14.25 C-12.31077765 11.68922235 -12.06451364 9.82117397 -12.2109375 6.3203125 C-10.76488414 -0.17467295 -5.66054178 -0.27821188 0 0 Z " fill="#123E60" transform="translate(214.75,207.75)" data-index="59" style="visibility: visible;"></path>
<path d="M0 0 C4.40470374 0.29951985 8.20416746 1.23019367 12.40625 2.515625 C13.12683594 2.72058594 13.84742188 2.92554688 14.58984375 3.13671875 C19.48492805 4.59727736 23.55651877 6.58710629 27.90625 9.265625 C24.77758777 10.28528228 23.0407136 10.25226348 19.96484375 9.12109375 C19.22089355 8.85699707 18.47694336 8.59290039 17.71044922 8.32080078 C16.92943848 8.03446777 16.14842773 7.74813477 15.34375 7.453125 C8.58818629 5.07594035 2.03762091 3.1766812 -5.09375 2.265625 C-3.09375 0.265625 -3.09375 0.265625 0 0 Z " fill="#22A3E5" transform="translate(258.09375,135.734375)" data-index="60" style="visibility: visible;"></path>
<path d="M0 0 C3.58565565 3.38247069 6.02379807 7.38243236 8.6875 11.5 C9.19861328 12.27214844 9.70972656 13.04429687 10.23632812 13.83984375 C10.71908203 14.58363281 11.20183594 15.32742188 11.69921875 16.09375 C12.14096436 16.77115234 12.58270996 17.44855469 13.0378418 18.14648438 C14 20 14 20 14 23 C13.34 23 12.68 23 12 23 C8 16.25 8 16.25 8 14 C7.21625 14.20625 6.4325 14.4125 5.625 14.625 C4.75875 14.74875 3.8925 14.8725 3 15 C0.23776722 12.23776722 0.42143709 9.79293383 0 6 C0.66 6 1.32 6 2 6 C1.34 4.02 0.68 2.04 0 0 Z " fill="#102F4C" transform="translate(250,262)" data-index="61" style="visibility: visible;"></path>
<path d="M0 0 C0.66 0.33 1.32 0.66 2 1 C1.67 5.29 1.34 9.58 1 14 C-6.38461538 15.35384615 -6.38461538 15.35384615 -9.5 13.5625 C-9.995 13.046875 -10.49 12.53125 -11 12 C-10.67 10.68 -10.34 9.36 -10 8 C-9.34 8 -8.68 8 -8 8 C-7.67 8.33 -7.34 8.66 -7 9 C-6.67 8.34 -6.34 7.68 -6 7 C-5.34 7.66 -4.68 8.32 -4 9 C-3.34 8.34 -2.68 7.68 -2 7 C-2 6.01 -2 5.02 -2 4 C-1.34 4 -0.68 4 0 4 C0 2.68 0 1.36 0 0 Z " fill="#102D49" transform="translate(298,192)" data-index="62" style="visibility: visible;"></path>
<path d="M0 0 C2.375 0.125 2.375 0.125 5 1 C7.03841707 3.51404771 8.05675609 4.97839031 7.875 8.25 C7.58625 8.8275 7.2975 9.405 7 10 C6.01 10.33 5.02 10.66 4 11 C3.67 10.34 3.34 9.68 3 9 C-0.11785113 9.64644661 -0.11785113 9.64644661 -1 12 C-1.99 12 -2.98 12 -4 12 C-4.33 11.01 -4.66 10.02 -5 9 C-3.68 8.67 -2.36 8.34 -1 8 C-1.020625 6.865625 -1.04125 5.73125 -1.0625 4.5625 C-1 1 -1 1 0 0 Z " fill="#0F2944" transform="translate(291,186)" data-index="63" style="visibility: visible;"></path>
<path d="M0 0 C0.66 0 1.32 0 2 0 C2.38375154 11.98157572 2.38375154 11.98157572 0 17 C-0.53625 17.474375 -1.0725 17.94875 -1.625 18.4375 C-3.352597 20.0298725 -3.352597 20.0298725 -2.8125 23 C-2.48459704 28.64721763 -6.17560773 33.35152106 -9 38 C-9.66 38 -10.32 38 -11 38 C-10.06302111 34.90076214 -9.212056 32.309928 -7.375 29.625 C-5.91133661 26.83073352 -5.92380643 25.96099223 -6.125 22.9375 C-6.08375 21.638125 -6.0425 20.33875 -6 19 C-5.18917969 18.41863281 -4.37835938 17.83726562 -3.54296875 17.23828125 C-0.63894036 15.14266815 -0.63894036 15.14266815 -0.29296875 11.328125 C-0.23361534 9.96959141 -0.19906713 8.60978033 -0.1875 7.25 C-0.16236328 6.55261719 -0.13722656 5.85523438 -0.11132812 5.13671875 C-0.05271038 3.42508051 -0.02342947 1.7124814 0 0 Z " fill="#601632" transform="translate(267,285)" data-index="64" style="visibility: visible;"></path>
<path d="M0 0 C2.375 -0.1875 2.375 -0.1875 5 0 C7.42479736 3.63719605 7.38662577 5.85703482 7.625 10.1875 C7.69976562 11.45980469 7.77453125 12.73210937 7.8515625 14.04296875 C7.90054688 15.01878906 7.94953125 15.99460938 8 17 C6.02 17.33 4.04 17.66 2 18 C1.375 15.6875 1.375 15.6875 1 13 C1.66 12.01 2.32 11.02 3 10 C3.5486783 5.19792453 3.5486783 5.19792453 1.5 1.0625 C1.005 0.711875 0.51 0.36125 0 0 Z " fill="#14476B" transform="translate(223,210)" data-index="65" style="visibility: visible;"></path>
<path d="M0 0 C11.33162218 3.41401437 11.33162218 3.41401437 14.25 7.9375 C15 10 15 10 15 14 C11.03471107 12.26083819 8.69560062 9.78255339 5.78125 6.65625 C3.95488055 4.95804683 2.27278771 3.99683672 0 3 C0 2.01 0 1.02 0 0 Z " fill="#103250" transform="translate(252,223)" data-index="66" style="visibility: visible;"></path>
<path d="M0 0 C0 1.65 0 3.3 0 5 C0.99 5 1.98 5 3 5 C2.67 5.99 2.34 6.98 2 8 C1.01 8 0.02 8 -1 8 C-1 10.64 -1 13.28 -1 16 C-3.35953094 13.64046906 -3.49141413 12.22104383 -4 9 C-4.99 9 -5.98 9 -7 9 C-7.33 8.01 -7.66 7.02 -8 6 C-3.85714286 0 -3.85714286 0 0 0 Z " fill="#113554" transform="translate(314,196)" data-index="67" style="visibility: visible;"></path>
<path d="M0 0 C0.33 0.66 0.66 1.32 1 2 C0.0625 4.125 0.0625 4.125 -1 6 C1.31 6 3.62 6 6 6 C6 6.33 6 6.66 6 7 C3.69 7.33 1.38 7.66 -1 8 C-2.71489384 14.21649019 -3.95245143 19.65453286 -2 26 C-4.89932357 23.60490662 -5.50168276 21.68754757 -6 18 C-6.33 18 -6.66 18 -7 18 C-6.59657725 11.81418444 -4.51160866 4.51160866 0 0 Z " fill="#4F152F" transform="translate(204,197)" data-index="68" style="visibility: visible;"></path>
<path d="M0 0 C3.63 0.66 7.26 1.32 11 2 C11 2.33 11 2.66 11 3 C13.31 3.33 15.62 3.66 18 4 C18 4.33 18 4.66 18 5 C16.92621094 5.06058594 15.85242188 5.12117187 14.74609375 5.18359375 C13.30988685 5.26807651 11.87368942 5.35272054 10.4375 5.4375 C9.73302734 5.47681641 9.02855469 5.51613281 8.30273438 5.55664062 C3.8201459 5.82518279 -0.56293497 6.30616197 -5 7 C-4.34 6.34 -3.68 5.68 -3 5 C-3.99 4.01 -4.98 3.02 -6 2 C-4.02 1.67 -2.04 1.34 0 1 C0 0.67 0 0.34 0 0 Z " fill="#10314F" transform="translate(229,139)" data-index="69" style="visibility: visible;"></path>
<path d="M0 0 C0.66 0 1.32 0 2 0 C1.44595362 3.77279199 0.46823769 6.16276197 -1.75 9.25 C-4.82861845 13.67458448 -7.46159142 18.24890783 -10 23 C-10.66 23 -11.32 23 -12 23 C-10.71266144 14.50969569 -5.29305936 6.6163242 0 0 Z " fill="#24ADF3" transform="translate(194,312)" data-index="70" style="visibility: visible;"></path>
<path d="M0 0 C10.55808656 3.07517084 10.55808656 3.07517084 15 5 C14.01 5.33 13.02 5.66 12 6 C11.67 10.29 11.34 14.58 11 19 C10.67 19 10.34 19 10 19 C10 15.37 10 11.74 10 8 C8.6078125 7.8453125 8.6078125 7.8453125 7.1875 7.6875 C3.96745642 6.9929808 2.97420135 6.52259061 1 4 C1.99 4 2.98 4 4 4 C4 3.34 4 2.68 4 2 C2.68 1.67 1.36 1.34 0 1 C0 0.67 0 0.34 0 0 Z " fill="#48152F" transform="translate(264,274)" data-index="71" style="visibility: visible;"></path>
<path d="M0 0 C0.33 0 0.66 0 1 0 C0.53411505 5.70709064 -0.93757784 9.15939723 -4 14 C-5.65 14 -7.3 14 -9 14 C-9.8125 12.3125 -9.8125 12.3125 -10 10 C-7.75 7.4375 -7.75 7.4375 -5 5 C-4.1646875 4.1028125 -4.1646875 4.1028125 -3.3125 3.1875 C-2 2 -2 2 0 2 C0 1.34 0 0.68 0 0 Z " fill="#35142B" transform="translate(248,185)" data-index="72" style="visibility: visible;"></path>
<path d="M0 0 C0.75410156 0.00322266 1.50820312 0.00644531 2.28515625 0.00976562 C3.06246094 0.01814453 3.83976562 0.02652344 4.640625 0.03515625 C5.43339844 0.03966797 6.22617188 0.04417969 7.04296875 0.04882812 C8.99222008 0.0605706 10.94143238 0.07850479 12.890625 0.09765625 C12.890625 0.42765625 12.890625 0.75765625 12.890625 1.09765625 C11.18519531 1.22720703 11.18519531 1.22720703 9.4453125 1.359375 C-2.28500657 2.37962454 -12.5452547 4.58594131 -23.109375 10.09765625 C-24.099375 9.10765625 -25.089375 8.11765625 -26.109375 7.09765625 C-24.995625 6.85015625 -23.881875 6.60265625 -22.734375 6.34765625 C-18.44751959 5.28738418 -14.46951088 3.71459257 -10.40625 2 C-6.87895935 0.61427867 -3.79074035 -0.02871773 0 0 Z " fill="#229DDD" transform="translate(235.109375,143.90234375)" data-index="73" style="visibility: visible;"></path>
<path d="M0 0 C-1.46582015 3.42280517 -3.38062255 5.56480483 -6.0625 8.125 C-8.91571933 10.77905 -8.91571933 10.77905 -11 14 C-11.99 13.67 -12.98 13.34 -14 13 C-13.14667236 9.01780436 -12.33254088 5.94471182 -8.90625 3.515625 C-7.71515625 2.88914062 -7.71515625 2.88914062 -6.5 2.25 C-5.30890625 1.60804688 -5.30890625 1.60804688 -4.09375 0.953125 C-2 0 -2 0 0 0 Z " fill="#123B5B" transform="translate(255,295)" data-index="74" style="visibility: visible;"></path>
<path d="M0 0 C0.66 0 1.32 0 2 0 C2.88276501 4.07304203 3.75529353 8.14810196 4.6184082 12.2253418 C4.91345422 13.61200942 5.21128765 14.998087 5.51196289 16.38354492 C5.94371262 18.37530275 6.36538774 20.3689686 6.78515625 22.36328125 C7.17006226 24.16212769 7.17006226 24.16212769 7.56274414 25.99731445 C8 29 8 29 7 32 C4.92859427 28.89289141 4.42585151 26.99370832 3.7109375 23.37890625 C3.49179688 22.27869141 3.27265625 21.17847656 3.046875 20.04492188 C2.82515625 18.89572266 2.6034375 17.74652344 2.375 16.5625 C2.14554688 15.41716797 1.91609375 14.27183594 1.6796875 13.09179688 C0 4.54838635 0 4.54838635 0 0 Z " fill="#185E8B" transform="translate(242,259)" data-index="75" style="visibility: visible;"></path>
<path d="M0 0 C2.72363329 1.36181664 2.96486228 2.86258987 4.1875 5.625 C6.62836328 10.67331367 9.5521168 14.55341752 14 18 C14.99 18.33 15.98 18.66 17 19 C17 19.66 17 20.32 17 21 C17.99 21.33 18.98 21.66 20 22 C19.34 22.33 18.68 22.66 18 23 C9.81514123 19.20569461 4.34286463 13.29030429 1 5 C0.25 2 0.25 2 0 0 Z " fill="#0B162C" transform="translate(244,240)" data-index="76" style="visibility: visible;"></path>
<path d="M0 0 C9.33054453 -1.00931371 17.3260615 1.98672112 26 5 C26 5.33 26 5.66 26 6 C19.90271584 5.58395002 13.93400131 4.71250413 7.9375 3.5625 C6.64714844 3.31628906 5.35679687 3.07007813 4.02734375 2.81640625 C2.52880859 2.41228516 2.52880859 2.41228516 1 2 C0.67 1.34 0.34 0.68 0 0 Z " fill="#24AAEE" transform="translate(247,139)" data-index="77" style="visibility: visible;"></path>
<path d="M0 0 C0.66 0.33 1.32 0.66 2 1 C2 2.32 2 3.64 2 5 C-0.31309705 4.88658363 -2.62550185 4.75896193 -4.9375 4.625 C-6.86916016 4.52058594 -6.86916016 4.52058594 -8.83984375 4.4140625 C-10.40412109 4.20910156 -10.40412109 4.20910156 -12 4 C-12.33 3.34 -12.66 2.68 -13 2 C-8.49009758 -0.25495121 -4.94269981 -0.2430836 0 0 Z " fill="#23A6E8" transform="translate(315,247)" data-index="78" style="visibility: visible;"></path>
<path d="M0 0 C0.33 0 0.66 0 1 0 C0.93967927 1.4386494 0.85079867 2.87611902 0.75 4.3125 C0.70359375 5.11300781 0.6571875 5.91351563 0.609375 6.73828125 C0 9 0 9 -2 10.4375 C-4.27027854 11.87131544 -4.27027854 11.87131544 -4.609375 14.69921875 C-4.65578125 15.68535156 -4.7021875 16.67148437 -4.75 17.6875 C-4.80671875 18.68136719 -4.8634375 19.67523438 -4.921875 20.69921875 C-4.94765625 21.45847656 -4.9734375 22.21773438 -5 23 C-5.66 22.67 -6.32 22.34 -7 22 C-8.05592589 13.10005322 -4.49198519 7.41406739 0 0 Z " fill="#196694" transform="translate(259,296)" data-index="79" style="visibility: visible;"></path>
<path d="M0 0 C1.32 0 2.64 0 4 0 C3.5188509 5.77378925 1.81532819 9.95859836 -1 15 C-1.66 14.67 -2.32 14.34 -3 14 C-2.69249629 11.85344499 -2.3788634 9.70776715 -2.0625 7.5625 C-1.88847656 6.36753906 -1.71445313 5.17257813 -1.53515625 3.94140625 C-1 1 -1 1 0 0 Z " fill="#16172D" transform="translate(199,195)" data-index="80" style="visibility: visible;"></path>
<path d="M0 0 C-0.33 0.99 -0.66 1.98 -1 3 C-1.82242188 2.96519531 -2.64484375 2.93039063 -3.4921875 2.89453125 C-10.14793247 2.73313328 -15.63072001 3.07067791 -21.87890625 5.44140625 C-24.30662497 6.08075022 -25.65260154 5.80375775 -28 5 C-19.04423186 0.62162446 -9.88580989 -0.38599692 0 0 Z " fill="#123E5F" transform="translate(248,145)" data-index="81" style="visibility: visible;"></path>
<path d="M0 0 C0 0.33 0 0.66 0 1 C-2.64 1.33 -5.28 1.66 -8 2 C-8 2.33 -8 2.66 -8 3 C-9.41543415 3.19658808 -10.83244031 3.38187546 -12.25 3.5625 C-13.03890625 3.66691406 -13.8278125 3.77132812 -14.640625 3.87890625 C-17.01296453 4.0006654 -18.72106426 3.57947298 -21 3 C-21.99 3.495 -21.99 3.495 -23 4 C-23.66 3.34 -24.32 2.68 -25 2 C-16.51148791 -1.78951433 -9.01236917 -0.9178241 0 0 Z " fill="#165882" transform="translate(251,137)" data-index="82" style="visibility: visible;"></path>
<path d="M0 0 C1 2 1 2 0.875 5 C0.91625 5.99 0.9575 6.98 1 8 C1.99 8.66 2.98 9.32 4 10 C4.51171875 12.3828125 4.51171875 12.3828125 4.6875 15.125 C4.78611328 16.49011719 4.78611328 16.49011719 4.88671875 17.8828125 C4.94279297 18.93082031 4.94279297 18.93082031 5 20 C0.50239606 15.73911206 -2.05636236 13.17946633 -2.25 6.9375 C-2 3 -2 3 0 0 Z " fill="#6F1835" transform="translate(259,324)" data-index="83" style="visibility: visible;"></path>
<path d="M0 0 C3.875 0.875 3.875 0.875 5 2 C5.4591096 7.66946971 5.23160356 12.69994154 3 18 C2.34 18 1.68 18 1 18 C1.01160156 16.95199219 1.02320313 15.90398437 1.03515625 14.82421875 C1.04453655 13.44531428 1.0536365 12.06640789 1.0625 10.6875 C1.07087891 9.99720703 1.07925781 9.30691406 1.08789062 8.59570312 C1.10307906 5.4516975 1.00193327 3.00579981 0 0 Z " fill="#0E243E" transform="translate(230,253)" data-index="84" style="visibility: visible;"></path>
<path d="M0 0 C1.078125 1.8203125 1.078125 1.8203125 2 4 C0.75 6.875 0.75 6.875 -1 10 C-1.69971973 11.98867713 -2.37664397 13.98608051 -3 16 C-3.66 16 -4.32 16 -5 16 C-5.82200425 9.75276774 -2.92551394 5.28682163 0 0 Z " fill="#175882" transform="translate(265,314)" data-index="85" style="visibility: visible;"></path>
<path d="M0 0 C2.46301423 2.46301423 2.76766521 4.27360036 3.625 7.625 C3.88539063 8.62789063 4.14578125 9.63078125 4.4140625 10.6640625 C4.60742188 11.43492187 4.80078125 12.20578125 5 13 C3.21475351 14.19713017 1.4215972 15.38247279 -0.375 16.5625 C-1.87160156 17.55443359 -1.87160156 17.55443359 -3.3984375 18.56640625 C-4.25695312 19.03949219 -5.11546875 19.51257813 -6 20 C-6.66 19.67 -7.32 19.34 -8 19 C-5.03 17.02 -2.06 15.04 1 13 C0.67 8.71 0.34 4.42 0 0 Z " fill="#411933" transform="translate(248,277)" data-index="86" style="visibility: visible;"></path>
<path d="M0 0 C5.97555737 -0.25484981 10.66390093 0.47613195 16.3125 2.375 C17.01439453 2.59671875 17.71628906 2.8184375 18.43945312 3.046875 C21.63717138 4.08331371 24.18658559 5.12439039 27 7 C21.80266185 7.31720843 17.78225812 6.20456088 12.9375 4.5625 C8.65907933 3.14430485 4.45591798 1.755682 0 1 C0 0.67 0 0.34 0 0 Z " fill="#14486C" transform="translate(252,138)" data-index="87" style="visibility: visible;"></path>
<path d="M0 0 C0.66 0 1.32 0 2 0 C1.84402344 1.12019531 1.68804687 2.24039062 1.52734375 3.39453125 C1.33037066 4.86713959 1.13377577 6.33979856 0.9375 7.8125 C0.83373047 8.55048828 0.72996094 9.28847656 0.62304688 10.04882812 C0.17913434 13.43174779 -0.09314992 15.72055025 1 19 C0.34 19 -0.32 19 -1 19 C-3.31406112 15.52890832 -3.08619615 14.05121887 -3 10 C-3.33 9.34 -3.66 8.68 -4 8 C-3.22265625 6.0546875 -3.22265625 6.0546875 -2.0625 3.875 C-1.49208984 2.78832031 -1.49208984 2.78832031 -0.91015625 1.6796875 C-0.60980469 1.12539063 -0.30945313 0.57109375 0 0 Z " fill="#2A132A" transform="translate(215,310)" data-index="88" style="visibility: visible;"></path>
<path d="M0 0 C0.33 0 0.66 0 1 0 C1 2.31 1 4.62 1 7 C-1.23019727 6.71632132 -3.45913454 6.42272612 -5.6875 6.125 C-6.92886719 5.96257812 -8.17023438 5.80015625 -9.44921875 5.6328125 C-12.57795295 5.07521631 -15.12148102 4.30991877 -18 3 C-14.10939581 1.5950596 -10.76907638 2.30486761 -6.75 2.9375 C-4.85507812 3.22947266 -4.85507812 3.22947266 -2.921875 3.52734375 C-1.95765625 3.68332031 -0.9934375 3.83929688 0 4 C0 2.68 0 1.36 0 0 Z " fill="#113655" transform="translate(317,248)" data-index="89" style="visibility: visible;"></path>
<path d="M0 0 C3.37686636 0.94598124 4.74316705 1.61793924 6.73046875 4.57421875 C7.45169922 6.11529297 7.45169922 6.11529297 8.1875 7.6875 C8.93966797 9.29431641 8.93966797 9.29431641 9.70703125 10.93359375 C11.11793236 14.27968853 12.19643814 17.46432781 13 21 C9.76633122 18.30856227 8.25987637 14.78590656 6.5 11.0625 C4.62558363 7.12131448 2.78919692 3.392956 0 0 Z " fill="#175C87" transform="translate(235,231)" data-index="90" style="visibility: visible;"></path>
<path d="M0 0 C0.43957031 0.49113281 0.87914062 0.98226562 1.33203125 1.48828125 C2.95842292 3.27541725 2.95842292 3.27541725 5.6875 3.1875 C6.450625 3.125625 7.21375 3.06375 8 3 C7.67 3.99 7.34 4.98 7 6 C6.34 6.268125 5.68 6.53625 5 6.8125 C4.34 7.204375 3.68 7.59625 3 8 C2.18415432 11.05908413 2.18415432 11.05908413 2 14 C0 12 0 12 -0.1953125 9.1796875 C-0.17210937 8.08914062 -0.14890625 6.99859375 -0.125 5.875 C-0.10695312 4.77929688 -0.08890625 3.68359375 -0.0703125 2.5546875 C-0.04710937 1.71164063 -0.02390625 0.86859375 0 0 Z " fill="#134468" transform="translate(209,213)" data-index="91" style="visibility: visible;"></path>
<path d="M0 0 C0.66 0.66 1.32 1.32 2 2 C-0.111492 5.85893365 -1.90118206 8.90118206 -5 12 C-6.19027984 14.59915538 -6.19027984 14.59915538 -7 17 C-8.1875 15.375 -8.1875 15.375 -9 13 C-7.8125 9.8125 -7.8125 9.8125 -6 7 C-5.01 6.67 -4.02 6.34 -3 6 C-1.29144978 2.99992729 -1.29144978 2.99992729 0 0 Z " fill="#0F2540" transform="translate(269,305)" data-index="92" style="visibility: visible;"></path>
<path d="M0 0 C5.34673609 3.32364676 6.47549821 7.19945661 8 13 C6.68 13 5.36 13 4 13 C3.32694982 11.39850114 2.66177773 9.79368971 2 8.1875 C1.62875 7.29417969 1.2575 6.40085937 0.875 5.48046875 C0 3 0 3 0 0 Z " fill="#0F2B47" transform="translate(248,275)" data-index="93" style="visibility: visible;"></path>
<path d="M0 0 C9.59453303 0.59453303 9.59453303 0.59453303 13 4 C7.55106131 5.19876651 4.77830905 4.91360308 0 2 C0 1.34 0 0.68 0 0 Z " fill="#14476B" transform="translate(290,242)" data-index="94" style="visibility: visible;"></path>
<path d="M0 0 C0.33 0.66 0.66 1.32 1 2 C0.00390625 4.13671875 0.00390625 4.13671875 -1.4375 6.6875 C-3.79127547 11.16747596 -4.54337113 14.00098563 -4 19 C-4.66 19 -5.32 19 -6 19 C-7.28571429 11.57142857 -7.28571429 11.57142857 -6 8 C-5.34 8 -4.68 8 -4 8 C-2.68 5.36 -1.36 2.72 0 0 Z " fill="#771735" transform="translate(223,309)" data-index="95" style="visibility: visible;"></path>
<path d="M0 0 C11.28671656 1.14780168 11.28671656 1.14780168 15.3125 5.5 C17 8 17 8 17 10 C16.34 10 15.68 10 15 10 C15 9.34 15 8.68 15 8 C14.34 8 13.68 8 13 8 C12.57074219 7.37609375 12.14148438 6.7521875 11.69921875 6.109375 C9.58117625 3.48008086 8.04336675 3.08918617 4.8125 2.25 C3.91144531 2.00765625 3.01039063 1.7653125 2.08203125 1.515625 C1.39496094 1.34546875 0.70789063 1.1753125 0 1 C0 0.67 0 0.34 0 0 Z " fill="#165680" transform="translate(224,333)" data-index="96" style="visibility: visible;"></path>
<path d="M0 0 C3.12623069 2.92565394 5.4522122 5.95379481 7.75 9.5625 C8.67039062 10.98755859 8.67039062 10.98755859 9.609375 12.44140625 C11 15 11 15 11 18 C10.34 18 9.68 18 9 18 C7.49480613 15.37785672 5.99568681 12.75255792 4.5 10.125 C3.85611328 9.00544922 3.85611328 9.00544922 3.19921875 7.86328125 C2.79316406 7.14785156 2.38710937 6.43242187 1.96875 5.6953125 C1.59169922 5.03547363 1.21464844 4.37563477 0.82617188 3.69580078 C0 2 0 2 0 0 Z " fill="#175D89" transform="translate(253,267)" data-index="97" style="visibility: visible;"></path>
<path d="M0 0 C2.6915095 1.09654091 4.16428324 2.17367085 6.1875 4.3125 C9.74558774 7.71245051 13.64511183 9.77037316 18 12 C17.67 12.66 17.34 13.32 17 14 C10.42804395 10.70232811 4.77153336 7.67425589 0 2 C0 1.34 0 0.68 0 0 Z " fill="#0F2C48" transform="translate(246,251)" data-index="98" style="visibility: visible;"></path>
<path d="M0 0 C2.8125 0.4375 2.8125 0.4375 6 2 C7.44437265 4.89403604 8.26307084 7.85835465 9 11 C8.01 11 7.02 11 6 11 C3 6.77777778 3 6.77777778 3 4 C2.34 4 1.68 4 1 4 C0.67 2.68 0.34 1.36 0 0 Z " fill="#0F2B47" transform="translate(236,238)" data-index="99" style="visibility: visible;"></path>
<path d="M0 0 C0.268125 0.639375 0.53625 1.27875 0.8125 1.9375 C1.88667752 4.33131686 1.88667752 4.33131686 5 5 C2.48592381 9.28324091 0.87685861 11.64531705 -4 13 C-2.68 11.35 -1.36 9.7 0 8 C-1.32 8.33 -2.64 8.66 -4 9 C-4 8.34 -4 7.68 -4 7 C-2.35 6.67 -0.7 6.34 1 6 C0.2236068 2.9254644 0.2236068 2.9254644 -2 1 C-1.34 0.67 -0.68 0.34 0 0 Z " fill="#8C1838" transform="translate(237,195)" data-index="100" style="visibility: visible;"></path>
<path d="M0 0 C0.33 0.66 0.66 1.32 1 2 C0.22265625 3.9453125 0.22265625 3.9453125 -0.9375 6.125 C-1.31777344 6.84945313 -1.69804687 7.57390625 -2.08984375 8.3203125 C-2.54037109 9.15175781 -2.54037109 9.15175781 -3 10 C-4.32 10 -5.64 10 -7 10 C-4.47596154 2.25961538 -4.47596154 2.25961538 -1.9375 0.875 C-1.298125 0.58625 -0.65875 0.2975 0 0 Z " fill="#49152E" transform="translate(239,297)" data-index="101" style="visibility: visible;"></path>
<path d="M0 0 C0.99 0 1.98 0 3 0 C3.99 2.64 4.98 5.28 6 8 C4.33388095 8.042721 2.66617115 8.04063832 1 8 C0 7 0 7 -0.0625 3.4375 C-0.041875 2.303125 -0.02125 1.16875 0 0 Z " fill="#219BDA" transform="translate(312,232)" data-index="102" style="visibility: visible;"></path>
<path d="M0 0 C2.375 0.125 2.375 0.125 5 1 C6.8125 3.5625 6.8125 3.5625 8 6 C7.01 6.99 6.02 7.98 5 9 C4.566875 8.236875 4.13375 7.47375 3.6875 6.6875 C2.26313215 4.41906232 0.96739903 2.7800277 -1 1 C-0.67 0.67 -0.34 0.34 0 0 Z " fill="#0B1429" transform="translate(291,186)" data-index="103" style="visibility: visible;"></path>
<path d="M0 0 C4.9723422 1.49170266 9.41845739 3.60457417 14 6 C14 5.01 14 4.02 14 3 C16.475 3.99 16.475 3.99 19 5 C18.360625 5.12375 17.72125 5.2475 17.0625 5.375 C16.381875 5.58125 15.70125 5.7875 15 6 C14.67 6.66 14.34 7.32 14 8 C9.15831437 6.24697589 4.56864758 4.39853998 0 2 C0 1.34 0 0.68 0 0 Z " fill="#0F2B47" transform="translate(275,236)" data-index="104" style="visibility: visible;"></path>
<path d="M0 0 C1.98260599 0.42164019 3.96107245 0.86278778 5.9375 1.3125 C7.03964844 1.55613281 8.14179688 1.79976562 9.27734375 2.05078125 C10.62505859 2.52064453 10.62505859 2.52064453 12 3 C12.33 3.99 12.66 4.98 13 6 C7.57689095 5.56615128 4.29855944 4.35497322 0 1 C0 0.67 0 0.34 0 0 Z " fill="#0B162B" transform="translate(212,231)" data-index="105" style="visibility: visible;"></path>
<path d="M0 0 C3.6181282 0.24120855 6.38895322 0.93837199 9.75 2.25 C9.75 2.91 9.75 3.57 9.75 4.25 C4.74109914 3.63487182 -0.25632136 2.9782448 -5.25 2.25 C-3.25 0.25 -3.25 0.25 0 0 Z " fill="#24ACF0" transform="translate(258.25,135.75)" data-index="106" style="visibility: visible;"></path>
<path d="M0 0 C0.66 0.33 1.32 0.66 2 1 C2 2.32 2 3.64 2 5 C0.25 6.484375 0.25 6.484375 -2 7.75 C-3.11375 8.39195312 -3.11375 8.39195312 -4.25 9.046875 C-5.11625 9.51867187 -5.11625 9.51867187 -6 10 C-4.6302836 6.00499382 -2.74277578 3.19990508 0 0 Z " fill="#23A8EB" transform="translate(196,317)" data-index="107" style="visibility: visible;"></path>
<path d="M0 0 C0.99 0 1.98 0 3 0 C2.27991594 4.60853797 0.68704061 8.67237409 -1 13 C-1.33 13 -1.66 13 -2 13 C-1.85915204 11.20793453 -1.71216299 9.41635083 -1.5625 7.625 C-1.48128906 6.62726563 -1.40007812 5.62953125 -1.31640625 4.6015625 C-1 2 -1 2 0 0 Z " fill="#24ABEF" transform="translate(186,178)" data-index="108" style="visibility: visible;"></path>
<path d="M0 0 C-0.99 1.485 -0.99 1.485 -2 3 C-5.625 3.6875 -5.625 3.6875 -9 4 C-8.34 3.34 -7.68 2.68 -7 2 C-7.99 1.01 -8.98 0.02 -10 -1 C-6.06329512 -2.31223496 -3.87511856 -1.24296256 0 0 Z " fill="#0D233C" transform="translate(233,142)" data-index="109" style="visibility: visible;"></path>
<path d="M0 0 C0 4 0 4 -1 7 C-1 6.34 -1 5.68 -1 5 C-3.64 4.67 -6.28 4.34 -9 4 C-6.31059578 0.90718514 -4.07621501 0 0 0 Z " fill="#103351" transform="translate(316,227)" data-index="110" style="visibility: visible;"></path>
<path d="M0 0 C0.66 0.66 1.32 1.32 2 2 C1.625 4.625 1.625 4.625 1 7 C0.01 7.33 -0.98 7.66 -2 8 C-2.6875 5.6875 -2.6875 5.6875 -3 3 C-1.5625 1.1875 -1.5625 1.1875 0 0 Z " fill="#10304D" transform="translate(227,220)" data-index="111" style="visibility: visible;"></path>
<path d="M0 0 C4.50802601 1.25805377 7.4912812 2.90407165 11 6 C10.67 6.66 10.34 7.32 10 8 C9.34 8 8.68 8 8 8 C7.38125 7.34 6.7625 6.68 6.125 6 C4.0008924 3.5430902 4.0008924 3.5430902 0 4 C0 2.68 0 1.36 0 0 Z " fill="#134366" transform="translate(290,183)" data-index="112" style="visibility: visible;"></path>
<path d="M0 0 C-1.91040052 0.8680908 -3.82860737 1.71901783 -5.75 2.5625 C-6.81734375 3.03816406 -7.8846875 3.51382813 -8.984375 4.00390625 C-11.98369837 4.9946154 -13.13421241 5.16161779 -16 4 C-14.58521865 3.35004703 -13.16808513 2.70521278 -11.75 2.0625 C-10.96109375 1.70285156 -10.1721875 1.34320313 -9.359375 0.97265625 C-3.87046632 -1.29015544 -3.87046632 -1.29015544 0 0 Z " fill="#0F1E35" transform="translate(232,153)" data-index="113" style="visibility: visible;"></path>
<path d="M0 0 C0.33 0.66 0.66 1.32 1 2 C1.99 2 2.98 2 4 2 C4 2.66 4 3.32 4 4 C1.35261084 5.4606285 0.10551666 6 -3 6 C-3.33 5.01 -3.66 4.02 -4 3 C-2.68 2.01 -1.36 1.02 0 0 Z " fill="#14466A" transform="translate(215,145)" data-index="114" style="visibility: visible;"></path>
<path d="M0 0 C5.852795 0.51482919 11.3297637 1.45357192 17 3 C17 3.33 17 3.66 17 4 C10.54107286 4.40368295 5.93891422 3.5915262 0 1 C0 0.67 0 0.34 0 0 Z " fill="#10314E" transform="translate(254,142)" data-index="115" style="visibility: visible;"></path>
<path d="M0 0 C0.99 0.33 1.98 0.66 3 1 C2.5875 1.350625 2.175 1.70125 1.75 2.0625 C-0.70762407 4.78344094 -2.24051885 7.78439652 -4 11 C-4.75 9.375 -4.75 9.375 -5 7 C-3.50594347 4.4601039 -2.09462345 2.09462345 0 0 Z " fill="#0D2139" transform="translate(311,186)" data-index="116" style="visibility: visible;"></path>
<path d="M0 0 C0.99 0.33 1.98 0.66 3 1 C1.68 3.64 0.36 6.28 -1 9 C-3 6 -3 6 -2.625 3.8125 C-2.41875 3.214375 -2.2125 2.61625 -2 2 C-1.34 2 -0.68 2 0 2 C0 1.34 0 0.68 0 0 Z " fill="#2F132B" transform="translate(220,309)" data-index="117" style="visibility: visible;"></path>
<path d="M0 0 C0.66 0.33 1.32 0.66 2 1 C1.01 2.485 1.01 2.485 0 4 C-0.45139459 6.0492094 -0.45139459 6.0492094 -0.625 8.1875 C-0.74875 9.445625 -0.8725 10.70375 -1 12 C-3.32528287 9.67471713 -3.29511025 9.15334102 -3.3125 6 C-3.32925781 5.29875 -3.34601563 4.5975 -3.36328125 3.875 C-3.24339844 3.25625 -3.12351563 2.6375 -3 2 C-2.01 1.34 -1.02 0.68 0 0 Z " fill="#10304D" transform="translate(206,210)" data-index="118" style="visibility: visible;"></path>
<path d="M0 0 C1.32 0.66 2.64 1.32 4 2 C3.67 2.99 3.34 3.98 3 5 C2.34 4.67 1.68 4.34 1 4 C0.5978125 5.175625 0.5978125 5.175625 0.1875 6.375 C-1 9 -1 9 -4 11 C-3.71125 10.29875 -3.4225 9.5975 -3.125 8.875 C-1.97866412 5.94547497 -0.97374346 2.99078347 0 0 Z " fill="#561530" transform="translate(220,192)" data-index="119" style="visibility: visible;"></path>
<path d="M0 0 C0.66 0 1.32 0 2 0 C2.226875 0.639375 2.45375 1.27875 2.6875 1.9375 C3.85250896 4.27193661 3.85250896 4.27193661 6.625 4.75 C7.40875 4.8325 8.1925 4.915 9 5 C9 5.33 9 5.66 9 6 C6.25 6.6875 6.25 6.6875 3 7 C0.625 5.5625 0.625 5.5625 -1 4 C-0.67 2.68 -0.34 1.36 0 0 Z " fill="#134468" transform="translate(288,200)" data-index="120" style="visibility: visible;"></path>
<path d="M0 0 C0.78375 0.04125 1.5675 0.0825 2.375 0.125 C2.045 1.115 1.715 2.105 1.375 3.125 C1.045 2.795 0.715 2.465 0.375 2.125 C0.375 3.115 0.375 4.105 0.375 5.125 C-0.945 5.125 -2.265 5.125 -3.625 5.125 C-3.955 4.135 -4.285 3.145 -4.625 2.125 C-2.625 0.125 -2.625 0.125 0 0 Z " fill="#0C1A30" transform="translate(310.625,199.875)" data-index="121" style="visibility: visible;"></path>
<path d="M0 0 C0.66 0 1.32 0 2 0 C0.94124926 3.40312738 -0.00902154 6.01353231 -2 9 C-2.66 9 -3.32 9 -4 9 C-2.94124926 5.59687262 -1.99097846 2.98646769 0 0 Z " fill="#591631" transform="translate(206,313)" data-index="122" style="visibility: visible;"></path>
<path d="M0 0 C1.5625 1.8125 1.5625 1.8125 3 4 C2.67 4.99 2.34 5.98 2 7 C0.0625 6.1875 0.0625 6.1875 -2 5 C-2.33 4.01 -2.66 3.02 -3 2 C-2.01 2 -1.02 2 0 2 C0 1.34 0 0.68 0 0 Z " fill="#0B152A" transform="translate(294,195)" data-index="123" style="visibility: visible;"></path>
<path d="M0 0 C0 0.66 0 1.32 0 2 C-2.97 2.66 -5.94 3.32 -9 4 C-8.67 3.34 -8.34 2.68 -8 2 C-7.34 2 -6.68 2 -6 2 C-6 1.34 -6 0.68 -6 0 C-2.25 -1.125 -2.25 -1.125 0 0 Z " fill="#18628F" transform="translate(287,196)" data-index="124" style="visibility: visible;"></path>
<path d="M0 0 C0.66 0 1.32 0 2 0 C2.33 1.32 2.66 2.64 3 4 C2.34 4 1.68 4 1 4 C0.67 4.66 0.34 5.32 0 6 C-0.99 6 -1.98 6 -3 6 C-3.33 5.01 -3.66 4.02 -4 3 C-2.68 2.67 -1.36 2.34 0 2 C0 1.34 0 0.68 0 0 Z " fill="#103351" transform="translate(290,192)" data-index="125" style="visibility: visible;"></path>
<path d="M0 0 C1.32 0.33 2.64 0.66 4 1 C4 4.3 4 7.6 4 11 C3.67 11 3.34 11 3 11 C2.51171875 9.01432292 2.0234375 7.02864583 1.53515625 5.04296875 C1.08989295 3.34316798 0.55566015 1.66698046 0 0 Z " fill="#0F2C47" transform="translate(230,253)" data-index="126" style="visibility: visible;"></path>
<path d="M0 0 C2 2 2 2 2 6 C-0.97 5.505 -0.97 5.505 -4 5 C-3.67 4.34 -3.34 3.68 -3 3 C-2.34 3.33 -1.68 3.66 -1 4 C-0.67 2.68 -0.34 1.36 0 0 Z " fill="#1F1A32" transform="translate(206,220)" data-index="127" style="visibility: visible;"></path>
<path d="M0 0 C1.2077558 3.62326739 0.54311128 4.64146369 -1 8 C-1.66 8 -2.32 8 -3 8 C-3.33 8.99 -3.66 9.98 -4 11 C-3.67 8.69 -3.34 6.38 -3 4 C-2.34 4 -1.68 4 -1 4 C-0.67 2.68 -0.34 1.36 0 0 Z " fill="#35142C" transform="translate(201,204)" data-index="128" style="visibility: visible;"></path>
<path d="M0 0 C-0.66 0.66 -1.32 1.32 -2 2 C-2.495 2.53625 -2.99 3.0725 -3.5 3.625 C-5 5 -5 5 -7 5 C-7 3.68 -7 2.36 -7 1 C-3.375 -1.125 -3.375 -1.125 0 0 Z " fill="#103351" transform="translate(281,198)" data-index="129" style="visibility: visible;"></path>
<path d="M0 0 C0.99 0.33 1.98 0.66 3 1 C-0.465 3.97 -0.465 3.97 -4 7 C-4 4 -4 4 -2 1.8125 C-1.34 1.214375 -0.68 0.61625 0 0 Z " fill="#36142C" transform="translate(212,187)" data-index="130" style="visibility: visible;"></path>
<path d="M0 0 C0.33 0 0.66 0 1 0 C1 1.98 1 3.96 1 6 C-0.65 6.33 -2.3 6.66 -4 7 C-2.68 4.69 -1.36 2.38 0 0 Z " fill="#196999" transform="translate(230,232)" data-index="131" style="visibility: visible;"></path>
<path d="M0 0 C0.33 0 0.66 0 1 0 C1 2.97 1 5.94 1 9 C-0.98 9.99 -0.98 9.99 -3 11 C-2.01 7.37 -1.02 3.74 0 0 Z " fill="#B61A3E" transform="translate(244,180)" data-index="132" style="visibility: visible;"></path>
<path d="M0 0 C0.66 0 1.32 0 2 0 C1.67 1.65 1.34 3.3 1 5 C-0.32 5.33 -1.64 5.66 -3 6 C-2 4 -1 2 0 0 Z " fill="#23A7EA" transform="translate(194,312)" data-index="133" style="visibility: visible;"></path>
<path d="M0 0 C1.65 0 3.3 0 5 0 C5.33 0.66 5.66 1.32 6 2 C2.78548731 3.60725635 -0.43612536 3.05748185 -4 3 C-2.68 2.67 -1.36 2.34 0 2 C0 1.34 0 0.68 0 0 Z " fill="#0B172C" transform="translate(285,205)" data-index="134" style="visibility: visible;"></path>
</svg>